<svg xmlns="http://www.w3.org/2000/svg" width="900" height="900"><rect width="900" height="900" fill="none"/><line x1="610" y1="191" x2="567" y2="191" stroke="#C06800" stroke-width="0.8" opacity="0.55"/><line x1="484" y1="530" x2="536" y2="508" stroke="#F5A623" stroke-width="0.8" opacity="0.55"/><line x1="297" y1="548" x2="335" y2="532" stroke="#E8921A" stroke-width="0.8" opacity="0.55"/><line x1="345" y1="554" x2="340" y2="511" stroke="#F08800" stroke-width="0.8" opacity="0.55"/><line x1="298" y1="417" x2="320" y2="374" stroke="#E8921A" stroke-width="0.8" opacity="0.55"/><line x1="306" y1="445" x2="298" y2="417" stroke="#F08800" stroke-width="0.8" opacity="0.55"/><line x1="624" y1="396" x2="627" y2="424" stroke="#D4780A" stroke-width="0.8" opacity="0.55"/><line x1="512" y1="331" x2="481" y2="269" stroke="#E8921A" stroke-width="0.8" opacity="0.55"/><line x1="585" y1="474" x2="652" y2="482" stroke="#F5A623" stroke-width="0.8" opacity="0.55"/><line x1="323" y1="556" x2="311" y2="489" stroke="#C06800" stroke-width="0.8" opacity="0.55"/><line x1="546" y1="316" x2="581" y2="356" stroke="#E8921A" stroke-width="0.8" opacity="0.55"/><line x1="484" y1="530" x2="527" y2="512" stroke="#F5A623" stroke-width="0.8" opacity="0.55"/><line x1="629" y1="271" x2="633" y2="281" stroke="#C06800" stroke-width="0.8" opacity="0.55"/><line x1="252" y1="729" x2="248" y2="645" stroke="#F08800" stroke-width="0.8" opacity="0.55"/><line x1="378" y1="96" x2="416" y2="98" stroke="#C06800" stroke-width="0.8" opacity="0.55"/><line x1="460" y1="538" x2="484" y2="530" stroke="#D4780A" stroke-width="0.8" opacity="0.55"/><line x1="498" y1="372" x2="545" y2="386" stroke="#D4780A" stroke-width="0.8" opacity="0.55"/><line x1="633" y1="454" x2="659" y2="460" stroke="#F5A623" stroke-width="0.8" opacity="0.55"/><line x1="590" y1="686" x2="625" y2="707" stroke="#E8921A" stroke-width="0.8" opacity="0.55"/><line x1="444" y1="236" x2="463" y2="245" stroke="#D4780A" stroke-width="0.8" opacity="0.55"/><line x1="538" y1="364" x2="546" y2="316" stroke="#E8921A" stroke-width="0.8" opacity="0.55"/><line x1="168" y1="404" x2="216" y2="412" stroke="#F08800" stroke-width="0.8" opacity="0.55"/><line x1="637" y1="444" x2="585" y2="474" stroke="#F08800" stroke-width="0.8" opacity="0.55"/><line x1="233" y1="455" x2="285" y2="409" stroke="#C06800" stroke-width="0.8" opacity="0.55"/><line x1="489" y1="312" x2="459" y2="371" stroke="#E8921A" stroke-width="0.8" opacity="0.55"/><line x1="739" y1="238" x2="682" y2="259" stroke="#F08800" stroke-width="0.8" opacity="0.55"/><line x1="367" y1="401" x2="387" y2="357" stroke="#F5A623" stroke-width="0.8" opacity="0.55"/><line x1="168" y1="404" x2="168" y2="464" stroke="#F5A623" stroke-width="0.8" opacity="0.55"/><line x1="460" y1="538" x2="413" y2="549" stroke="#F08800" stroke-width="0.8" opacity="0.55"/><line x1="489" y1="312" x2="546" y2="343" stroke="#C06800" stroke-width="0.8" opacity="0.55"/><line x1="335" y1="532" x2="311" y2="489" stroke="#F08800" stroke-width="0.8" opacity="0.55"/><line x1="512" y1="331" x2="581" y2="356" stroke="#E8921A" stroke-width="0.8" opacity="0.55"/><line x1="546" y1="343" x2="538" y2="364" stroke="#C06800" stroke-width="0.8" opacity="0.55"/><line x1="652" y1="482" x2="659" y2="460" stroke="#E8921A" stroke-width="0.8" opacity="0.55"/><line x1="309" y1="290" x2="340" y2="203" stroke="#E8921A" stroke-width="0.8" opacity="0.55"/><line x1="298" y1="417" x2="365" y2="422" stroke="#C06800" stroke-width="0.8" opacity="0.55"/><line x1="633" y1="454" x2="694" y2="486" stroke="#F08800" stroke-width="0.8" opacity="0.55"/><line x1="309" y1="290" x2="244" y2="240" stroke="#D4780A" stroke-width="0.8" opacity="0.55"/><line x1="625" y1="707" x2="693" y2="692" stroke="#E8921A" stroke-width="0.8" opacity="0.55"/><line x1="489" y1="312" x2="463" y2="245" stroke="#D4780A" stroke-width="0.8" opacity="0.55"/><line x1="233" y1="559" x2="288" y2="593" stroke="#D4780A" stroke-width="0.8" opacity="0.55"/><line x1="309" y1="654" x2="288" y2="593" stroke="#D4780A" stroke-width="0.8" opacity="0.55"/><line x1="617" y1="486" x2="552" y2="467" stroke="#D4780A" stroke-width="0.8" opacity="0.55"/><line x1="607" y1="523" x2="642" y2="511" stroke="#D4780A" stroke-width="0.8" opacity="0.55"/><line x1="309" y1="654" x2="259" y2="616" stroke="#C06800" stroke-width="0.8" opacity="0.55"/><line x1="340" y1="452" x2="311" y2="489" stroke="#F08800" stroke-width="0.8" opacity="0.55"/><line x1="498" y1="372" x2="549" y2="417" stroke="#E8921A" stroke-width="0.8" opacity="0.55"/><line x1="173" y1="359" x2="216" y2="412" stroke="#D4780A" stroke-width="0.8" opacity="0.55"/><line x1="297" y1="548" x2="311" y2="489" stroke="#C06800" stroke-width="0.8" opacity="0.55"/><line x1="482" y1="237" x2="444" y2="236" stroke="#F08800" stroke-width="0.8" opacity="0.55"/><line x1="514" y1="747" x2="494" y2="697" stroke="#F5A623" stroke-width="0.8" opacity="0.55"/><line x1="272" y1="506" x2="340" y2="511" stroke="#E8921A" stroke-width="0.8" opacity="0.55"/><line x1="459" y1="371" x2="391" y2="393" stroke="#E8921A" stroke-width="0.8" opacity="0.55"/><line x1="340" y1="203" x2="291" y2="169" stroke="#F5A623" stroke-width="0.8" opacity="0.55"/><line x1="272" y1="506" x2="233" y2="559" stroke="#F08800" stroke-width="0.8" opacity="0.55"/><line x1="552" y1="467" x2="585" y2="474" stroke="#F08800" stroke-width="0.8" opacity="0.55"/><line x1="514" y1="747" x2="455" y2="728" stroke="#F5A623" stroke-width="0.8" opacity="0.55"/><line x1="248" y1="645" x2="288" y2="593" stroke="#F5A623" stroke-width="0.8" opacity="0.55"/><line x1="738" y1="446" x2="694" y2="486" stroke="#C06800" stroke-width="0.8" opacity="0.55"/><line x1="734" y1="574" x2="728" y2="588" stroke="#C06800" stroke-width="0.8" opacity="0.55"/><line x1="252" y1="198" x2="291" y2="169" stroke="#F5A623" stroke-width="0.8" opacity="0.55"/><line x1="722" y1="565" x2="728" y2="588" stroke="#D4780A" stroke-width="0.8" opacity="0.55"/><line x1="611" y1="304" x2="633" y2="281" stroke="#C06800" stroke-width="0.8" opacity="0.55"/><line x1="617" y1="486" x2="652" y2="482" stroke="#D4780A" stroke-width="0.8" opacity="0.55"/><line x1="738" y1="446" x2="777" y2="385" stroke="#D4780A" stroke-width="0.8" opacity="0.55"/><line x1="743" y1="296" x2="739" y2="238" stroke="#E8921A" stroke-width="0.8" opacity="0.55"/><line x1="476" y1="316" x2="498" y2="372" stroke="#F5A623" stroke-width="0.8" opacity="0.55"/><line x1="489" y1="312" x2="498" y2="372" stroke="#C06800" stroke-width="0.8" opacity="0.55"/><line x1="168" y1="404" x2="216" y2="445" stroke="#E8921A" stroke-width="0.8" opacity="0.55"/><line x1="529" y1="241" x2="567" y2="191" stroke="#F5A623" stroke-width="0.8" opacity="0.55"/><line x1="345" y1="554" x2="335" y2="532" stroke="#F08800" stroke-width="0.8" opacity="0.55"/><line x1="481" y1="269" x2="463" y2="245" stroke="#E8921A" stroke-width="0.8" opacity="0.55"/><line x1="297" y1="548" x2="345" y2="554" stroke="#D4780A" stroke-width="0.8" opacity="0.55"/><line x1="484" y1="530" x2="515" y2="562" stroke="#F08800" stroke-width="0.8" opacity="0.55"/><line x1="309" y1="290" x2="271" y2="318" stroke="#F5A623" stroke-width="0.8" opacity="0.55"/><line x1="285" y1="409" x2="216" y2="412" stroke="#F08800" stroke-width="0.8" opacity="0.55"/><line x1="331" y1="630" x2="288" y2="593" stroke="#E8921A" stroke-width="0.8" opacity="0.55"/><line x1="484" y1="530" x2="416" y2="532" stroke="#E8921A" stroke-width="0.8" opacity="0.55"/><line x1="285" y1="409" x2="263" y2="429" stroke="#C06800" stroke-width="0.8" opacity="0.55"/><line x1="331" y1="630" x2="259" y2="616" stroke="#D4780A" stroke-width="0.8" opacity="0.55"/><line x1="734" y1="574" x2="722" y2="565" stroke="#C06800" stroke-width="0.8" opacity="0.55"/><line x1="378" y1="96" x2="370" y2="133" stroke="#F5A623" stroke-width="0.8" opacity="0.55"/><line x1="340" y1="452" x2="311" y2="455" stroke="#F08800" stroke-width="0.8" opacity="0.55"/><line x1="625" y1="707" x2="656" y2="702" stroke="#E8921A" stroke-width="0.8" opacity="0.55"/><line x1="729" y1="580" x2="736" y2="571" stroke="#D4780A" stroke-width="0.8" opacity="0.55"/><line x1="733" y1="241" x2="739" y2="238" stroke="#D4780A" stroke-width="0.8" opacity="0.55"/><line x1="538" y1="364" x2="498" y2="372" stroke="#C06800" stroke-width="0.8" opacity="0.55"/><line x1="514" y1="747" x2="460" y2="789" stroke="#E8921A" stroke-width="0.8" opacity="0.55"/><line x1="445" y1="802" x2="460" y2="789" stroke="#E8921A" stroke-width="0.8" opacity="0.55"/><line x1="611" y1="304" x2="546" y2="316" stroke="#C06800" stroke-width="0.8" opacity="0.55"/><line x1="585" y1="474" x2="549" y2="417" stroke="#C06800" stroke-width="0.8" opacity="0.55"/><line x1="340" y1="511" x2="335" y2="532" stroke="#D4780A" stroke-width="0.8" opacity="0.55"/><line x1="529" y1="241" x2="463" y2="245" stroke="#F5A623" stroke-width="0.8" opacity="0.55"/><line x1="271" y1="318" x2="325" y2="289" stroke="#C06800" stroke-width="0.8" opacity="0.55"/><line x1="306" y1="445" x2="311" y2="489" stroke="#F5A623" stroke-width="0.8" opacity="0.55"/><line x1="552" y1="467" x2="549" y2="417" stroke="#F5A623" stroke-width="0.8" opacity="0.55"/><line x1="460" y1="538" x2="503" y2="564" stroke="#D4780A" stroke-width="0.8" opacity="0.55"/><line x1="173" y1="359" x2="211" y2="361" stroke="#E8921A" stroke-width="0.8" opacity="0.55"/><line x1="476" y1="316" x2="459" y2="371" stroke="#E8921A" stroke-width="0.8" opacity="0.55"/><line x1="225" y1="518" x2="272" y2="506" stroke="#F5A623" stroke-width="0.8" opacity="0.55"/><line x1="298" y1="417" x2="311" y2="455" stroke="#D4780A" stroke-width="0.8" opacity="0.55"/><line x1="370" y1="133" x2="416" y2="98" stroke="#C06800" stroke-width="0.8" opacity="0.55"/><line x1="340" y1="511" x2="311" y2="455" stroke="#C06800" stroke-width="0.8" opacity="0.55"/><line x1="309" y1="290" x2="325" y2="289" stroke="#C06800" stroke-width="0.8" opacity="0.55"/><line x1="413" y1="549" x2="416" y2="532" stroke="#C06800" stroke-width="0.8" opacity="0.55"/><line x1="546" y1="343" x2="546" y2="316" stroke="#D4780A" stroke-width="0.8" opacity="0.55"/><line x1="311" y1="455" x2="365" y2="422" stroke="#D4780A" stroke-width="0.8" opacity="0.55"/><line x1="617" y1="486" x2="585" y2="474" stroke="#F08800" stroke-width="0.8" opacity="0.55"/><line x1="252" y1="198" x2="211" y2="190" stroke="#E8921A" stroke-width="0.8" opacity="0.55"/><line x1="633" y1="454" x2="652" y2="482" stroke="#F08800" stroke-width="0.8" opacity="0.55"/><line x1="320" y1="374" x2="285" y2="409" stroke="#E8921A" stroke-width="0.8" opacity="0.55"/><line x1="367" y1="401" x2="391" y2="393" stroke="#F08800" stroke-width="0.8" opacity="0.55"/><line x1="625" y1="707" x2="577" y2="700" stroke="#F08800" stroke-width="0.8" opacity="0.55"/><line x1="734" y1="574" x2="729" y2="580" stroke="#F08800" stroke-width="0.8" opacity="0.55"/><line x1="216" y1="412" x2="263" y2="429" stroke="#F5A623" stroke-width="0.8" opacity="0.55"/><line x1="200" y1="311" x2="173" y2="359" stroke="#F5A623" stroke-width="0.8" opacity="0.55"/><line x1="743" y1="296" x2="682" y2="259" stroke="#F5A623" stroke-width="0.8" opacity="0.55"/><line x1="387" y1="357" x2="365" y2="422" stroke="#E8921A" stroke-width="0.8" opacity="0.55"/><line x1="216" y1="412" x2="168" y2="464" stroke="#C06800" stroke-width="0.8" opacity="0.55"/><line x1="476" y1="316" x2="463" y2="245" stroke="#F5A623" stroke-width="0.8" opacity="0.55"/><line x1="297" y1="548" x2="323" y2="556" stroke="#E8921A" stroke-width="0.8" opacity="0.55"/><line x1="309" y1="290" x2="320" y2="374" stroke="#F08800" stroke-width="0.8" opacity="0.55"/><line x1="694" y1="486" x2="642" y2="511" stroke="#F08800" stroke-width="0.8" opacity="0.55"/><line x1="233" y1="559" x2="259" y2="616" stroke="#F08800" stroke-width="0.8" opacity="0.55"/><line x1="272" y1="506" x2="233" y2="455" stroke="#F5A623" stroke-width="0.8" opacity="0.55"/><line x1="345" y1="554" x2="311" y2="489" stroke="#E8921A" stroke-width="0.8" opacity="0.55"/><line x1="624" y1="396" x2="581" y2="356" stroke="#F5A623" stroke-width="0.8" opacity="0.55"/><line x1="514" y1="747" x2="445" y2="726" stroke="#C06800" stroke-width="0.8" opacity="0.55"/><line x1="590" y1="686" x2="494" y2="697" stroke="#D4780A" stroke-width="0.8" opacity="0.55"/><line x1="272" y1="506" x2="335" y2="532" stroke="#F08800" stroke-width="0.8" opacity="0.55"/><line x1="323" y1="556" x2="288" y2="593" stroke="#D4780A" stroke-width="0.8" opacity="0.55"/><line x1="459" y1="155" x2="496" y2="150" stroke="#E8921A" stroke-width="0.8" opacity="0.55"/><line x1="633" y1="454" x2="617" y2="486" stroke="#F5A623" stroke-width="0.8" opacity="0.55"/><line x1="729" y1="580" x2="728" y2="588" stroke="#F5A623" stroke-width="0.8" opacity="0.55"/><line x1="637" y1="444" x2="627" y2="424" stroke="#E8921A" stroke-width="0.8" opacity="0.55"/><line x1="733" y1="241" x2="682" y2="259" stroke="#F08800" stroke-width="0.8" opacity="0.55"/><line x1="743" y1="296" x2="733" y2="241" stroke="#C06800" stroke-width="0.8" opacity="0.55"/><line x1="306" y1="445" x2="311" y2="455" stroke="#F08800" stroke-width="0.8" opacity="0.55"/><line x1="173" y1="359" x2="168" y2="404" stroke="#D4780A" stroke-width="0.8" opacity="0.55"/><line x1="312" y1="128" x2="291" y2="169" stroke="#E8921A" stroke-width="0.8" opacity="0.55"/><line x1="200" y1="311" x2="211" y2="361" stroke="#E8921A" stroke-width="0.8" opacity="0.55"/><line x1="637" y1="444" x2="642" y2="511" stroke="#C06800" stroke-width="0.8" opacity="0.55"/><line x1="484" y1="530" x2="413" y2="549" stroke="#D4780A" stroke-width="0.8" opacity="0.55"/><line x1="489" y1="312" x2="538" y2="364" stroke="#F5A623" stroke-width="0.8" opacity="0.55"/><line x1="248" y1="645" x2="259" y2="616" stroke="#F08800" stroke-width="0.8" opacity="0.55"/><line x1="515" y1="562" x2="527" y2="512" stroke="#E8921A" stroke-width="0.8" opacity="0.55"/><line x1="512" y1="331" x2="546" y2="316" stroke="#E8921A" stroke-width="0.8" opacity="0.55"/><line x1="340" y1="511" x2="311" y2="489" stroke="#C06800" stroke-width="0.8" opacity="0.55"/><line x1="306" y1="445" x2="263" y2="429" stroke="#F5A623" stroke-width="0.8" opacity="0.55"/><line x1="482" y1="237" x2="463" y2="245" stroke="#F08800" stroke-width="0.8" opacity="0.55"/><line x1="297" y1="548" x2="340" y2="511" stroke="#C06800" stroke-width="0.8" opacity="0.55"/><line x1="729" y1="580" x2="722" y2="565" stroke="#C06800" stroke-width="0.8" opacity="0.55"/><line x1="633" y1="454" x2="585" y2="474" stroke="#E8921A" stroke-width="0.8" opacity="0.55"/><line x1="617" y1="486" x2="607" y2="523" stroke="#F5A623" stroke-width="0.8" opacity="0.55"/><line x1="633" y1="454" x2="624" y2="396" stroke="#F08800" stroke-width="0.8" opacity="0.55"/><line x1="498" y1="372" x2="459" y2="371" stroke="#D4780A" stroke-width="0.8" opacity="0.55"/><line x1="252" y1="198" x2="244" y2="240" stroke="#D4780A" stroke-width="0.8" opacity="0.55"/><line x1="694" y1="486" x2="659" y2="460" stroke="#E8921A" stroke-width="0.8" opacity="0.55"/><line x1="603" y1="598" x2="634" y2="559" stroke="#D4780A" stroke-width="0.8" opacity="0.55"/><line x1="489" y1="312" x2="481" y2="269" stroke="#F5A623" stroke-width="0.8" opacity="0.55"/><line x1="200" y1="311" x2="271" y2="318" stroke="#F08800" stroke-width="0.8" opacity="0.55"/><line x1="159" y1="646" x2="248" y2="645" stroke="#F5A623" stroke-width="0.8" opacity="0.55"/><line x1="320" y1="374" x2="365" y2="422" stroke="#E8921A" stroke-width="0.8" opacity="0.55"/><line x1="476" y1="316" x2="546" y2="316" stroke="#C06800" stroke-width="0.8" opacity="0.55"/><line x1="297" y1="548" x2="272" y2="506" stroke="#C06800" stroke-width="0.8" opacity="0.55"/><line x1="225" y1="518" x2="233" y2="559" stroke="#C06800" stroke-width="0.8" opacity="0.55"/><line x1="585" y1="474" x2="627" y2="424" stroke="#F5A623" stroke-width="0.8" opacity="0.55"/><line x1="512" y1="331" x2="459" y2="371" stroke="#F08800" stroke-width="0.8" opacity="0.55"/><line x1="494" y1="697" x2="455" y2="728" stroke="#D4780A" stroke-width="0.8" opacity="0.55"/><line x1="585" y1="474" x2="642" y2="511" stroke="#E8921A" stroke-width="0.8" opacity="0.55"/><line x1="617" y1="486" x2="637" y2="444" stroke="#D4780A" stroke-width="0.8" opacity="0.55"/><line x1="297" y1="548" x2="288" y2="593" stroke="#F08800" stroke-width="0.8" opacity="0.55"/><line x1="272" y1="506" x2="311" y2="489" stroke="#F5A623" stroke-width="0.8" opacity="0.55"/><line x1="607" y1="523" x2="652" y2="482" stroke="#F08800" stroke-width="0.8" opacity="0.55"/><line x1="545" y1="386" x2="581" y2="356" stroke="#E8921A" stroke-width="0.8" opacity="0.55"/><line x1="546" y1="343" x2="498" y2="372" stroke="#C06800" stroke-width="0.8" opacity="0.55"/><line x1="637" y1="444" x2="659" y2="460" stroke="#F08800" stroke-width="0.8" opacity="0.55"/><line x1="476" y1="316" x2="512" y2="331" stroke="#C06800" stroke-width="0.8" opacity="0.55"/><line x1="489" y1="312" x2="512" y2="331" stroke="#F5A623" stroke-width="0.8" opacity="0.55"/><line x1="340" y1="452" x2="285" y2="409" stroke="#D4780A" stroke-width="0.8" opacity="0.55"/><line x1="585" y1="474" x2="536" y2="508" stroke="#E8921A" stroke-width="0.8" opacity="0.55"/><line x1="536" y1="508" x2="527" y2="512" stroke="#E8921A" stroke-width="0.8" opacity="0.55"/><line x1="367" y1="401" x2="298" y2="417" stroke="#C06800" stroke-width="0.8" opacity="0.55"/><line x1="552" y1="467" x2="536" y2="508" stroke="#C06800" stroke-width="0.8" opacity="0.55"/><line x1="345" y1="554" x2="323" y2="556" stroke="#D4780A" stroke-width="0.8" opacity="0.55"/><line x1="298" y1="417" x2="263" y2="429" stroke="#E8921A" stroke-width="0.8" opacity="0.55"/><line x1="585" y1="474" x2="527" y2="512" stroke="#E8921A" stroke-width="0.8" opacity="0.55"/><line x1="607" y1="523" x2="634" y2="559" stroke="#C06800" stroke-width="0.8" opacity="0.55"/><line x1="331" y1="630" x2="309" y2="654" stroke="#C06800" stroke-width="0.8" opacity="0.55"/><line x1="538" y1="364" x2="545" y2="386" stroke="#F08800" stroke-width="0.8" opacity="0.55"/><line x1="288" y1="593" x2="259" y2="616" stroke="#D4780A" stroke-width="0.8" opacity="0.55"/><line x1="552" y1="467" x2="527" y2="512" stroke="#F08800" stroke-width="0.8" opacity="0.55"/><line x1="637" y1="444" x2="694" y2="486" stroke="#F5A623" stroke-width="0.8" opacity="0.55"/><line x1="460" y1="538" x2="527" y2="512" stroke="#E8921A" stroke-width="0.8" opacity="0.55"/><line x1="309" y1="654" x2="248" y2="645" stroke="#D4780A" stroke-width="0.8" opacity="0.55"/><line x1="538" y1="364" x2="581" y2="356" stroke="#C06800" stroke-width="0.8" opacity="0.55"/><line x1="481" y1="269" x2="482" y2="237" stroke="#E8921A" stroke-width="0.8" opacity="0.55"/><line x1="320" y1="374" x2="387" y2="357" stroke="#F08800" stroke-width="0.8" opacity="0.55"/><line x1="484" y1="530" x2="503" y2="564" stroke="#C06800" stroke-width="0.8" opacity="0.55"/><line x1="340" y1="511" x2="323" y2="556" stroke="#F08800" stroke-width="0.8" opacity="0.55"/><line x1="503" y1="564" x2="536" y2="508" stroke="#C06800" stroke-width="0.8" opacity="0.55"/><line x1="512" y1="331" x2="498" y2="372" stroke="#E8921A" stroke-width="0.8" opacity="0.55"/><line x1="306" y1="445" x2="272" y2="506" stroke="#F5A623" stroke-width="0.8" opacity="0.55"/><line x1="642" y1="511" x2="634" y2="559" stroke="#D4780A" stroke-width="0.8" opacity="0.55"/><line x1="272" y1="506" x2="311" y2="455" stroke="#C06800" stroke-width="0.8" opacity="0.55"/><line x1="413" y1="549" x2="442" y2="609" stroke="#F5A623" stroke-width="0.8" opacity="0.55"/><line x1="633" y1="454" x2="637" y2="444" stroke="#E8921A" stroke-width="0.8" opacity="0.55"/><line x1="503" y1="564" x2="527" y2="512" stroke="#F5A623" stroke-width="0.8" opacity="0.55"/><line x1="252" y1="729" x2="300" y2="779" stroke="#E8921A" stroke-width="0.8" opacity="0.55"/><line x1="590" y1="686" x2="603" y2="598" stroke="#C06800" stroke-width="0.8" opacity="0.55"/><line x1="529" y1="241" x2="481" y2="269" stroke="#C06800" stroke-width="0.8" opacity="0.55"/><line x1="311" y1="455" x2="311" y2="489" stroke="#F08800" stroke-width="0.8" opacity="0.55"/><line x1="607" y1="523" x2="585" y2="474" stroke="#C06800" stroke-width="0.8" opacity="0.55"/><line x1="514" y1="747" x2="577" y2="700" stroke="#F08800" stroke-width="0.8" opacity="0.55"/><line x1="529" y1="241" x2="482" y2="237" stroke="#F5A623" stroke-width="0.8" opacity="0.55"/><line x1="340" y1="452" x2="340" y2="511" stroke="#E8921A" stroke-width="0.8" opacity="0.55"/><line x1="367" y1="401" x2="340" y2="452" stroke="#E8921A" stroke-width="0.8" opacity="0.55"/><line x1="617" y1="486" x2="627" y2="424" stroke="#D4780A" stroke-width="0.8" opacity="0.55"/><line x1="546" y1="316" x2="545" y2="386" stroke="#C06800" stroke-width="0.8" opacity="0.55"/><line x1="233" y1="455" x2="216" y2="412" stroke="#D4780A" stroke-width="0.8" opacity="0.55"/><line x1="538" y1="364" x2="549" y2="417" stroke="#D4780A" stroke-width="0.8" opacity="0.55"/><line x1="617" y1="486" x2="642" y2="511" stroke="#E8921A" stroke-width="0.8" opacity="0.55"/><line x1="489" y1="312" x2="476" y2="316" stroke="#E8921A" stroke-width="0.8" opacity="0.55"/><line x1="233" y1="455" x2="263" y2="429" stroke="#F08800" stroke-width="0.8" opacity="0.55"/><line x1="225" y1="518" x2="233" y2="455" stroke="#E8921A" stroke-width="0.8" opacity="0.55"/><line x1="340" y1="452" x2="365" y2="422" stroke="#D4780A" stroke-width="0.8" opacity="0.55"/><line x1="624" y1="396" x2="689" y2="391" stroke="#D4780A" stroke-width="0.8" opacity="0.55"/><line x1="734" y1="574" x2="736" y2="571" stroke="#E8921A" stroke-width="0.8" opacity="0.55"/><line x1="722" y1="565" x2="736" y2="571" stroke="#D4780A" stroke-width="0.8" opacity="0.55"/><line x1="306" y1="445" x2="340" y2="452" stroke="#D4780A" stroke-width="0.8" opacity="0.55"/><line x1="306" y1="445" x2="285" y2="409" stroke="#F08800" stroke-width="0.8" opacity="0.55"/><line x1="629" y1="271" x2="611" y2="304" stroke="#F5A623" stroke-width="0.8" opacity="0.55"/><line x1="233" y1="455" x2="168" y2="464" stroke="#C06800" stroke-width="0.8" opacity="0.55"/><line x1="297" y1="548" x2="233" y2="559" stroke="#D4780A" stroke-width="0.8" opacity="0.55"/><line x1="494" y1="697" x2="445" y2="726" stroke="#E8921A" stroke-width="0.8" opacity="0.55"/><line x1="459" y1="155" x2="416" y2="98" stroke="#F5A623" stroke-width="0.8" opacity="0.55"/><line x1="476" y1="316" x2="481" y2="269" stroke="#F08800" stroke-width="0.8" opacity="0.55"/><line x1="512" y1="331" x2="545" y2="386" stroke="#C06800" stroke-width="0.8" opacity="0.55"/><line x1="272" y1="506" x2="323" y2="556" stroke="#D4780A" stroke-width="0.8" opacity="0.55"/><line x1="312" y1="128" x2="370" y2="133" stroke="#F08800" stroke-width="0.8" opacity="0.55"/><line x1="659" y1="460" x2="627" y2="424" stroke="#E8921A" stroke-width="0.8" opacity="0.55"/><line x1="345" y1="554" x2="288" y2="593" stroke="#E8921A" stroke-width="0.8" opacity="0.55"/><line x1="367" y1="401" x2="320" y2="374" stroke="#E8921A" stroke-width="0.8" opacity="0.55"/><line x1="659" y1="460" x2="642" y2="511" stroke="#D4780A" stroke-width="0.8" opacity="0.55"/><line x1="387" y1="357" x2="391" y2="393" stroke="#E8921A" stroke-width="0.8" opacity="0.55"/><line x1="624" y1="396" x2="637" y2="444" stroke="#D4780A" stroke-width="0.8" opacity="0.55"/><line x1="736" y1="571" x2="728" y2="588" stroke="#F5A623" stroke-width="0.8" opacity="0.55"/><line x1="340" y1="452" x2="298" y2="417" stroke="#F5A623" stroke-width="0.8" opacity="0.55"/><line x1="536" y1="508" x2="515" y2="562" stroke="#C06800" stroke-width="0.8" opacity="0.55"/><line x1="694" y1="486" x2="652" y2="482" stroke="#F08800" stroke-width="0.8" opacity="0.55"/><line x1="306" y1="445" x2="320" y2="374" stroke="#C06800" stroke-width="0.8" opacity="0.55"/><line x1="323" y1="556" x2="335" y2="532" stroke="#D4780A" stroke-width="0.8" opacity="0.55"/><line x1="455" y1="728" x2="460" y2="789" stroke="#E8921A" stroke-width="0.8" opacity="0.55"/><line x1="340" y1="203" x2="364" y2="191" stroke="#D4780A" stroke-width="0.8" opacity="0.55"/><line x1="581" y1="356" x2="549" y2="417" stroke="#E8921A" stroke-width="0.8" opacity="0.55"/><line x1="320" y1="374" x2="391" y2="393" stroke="#C06800" stroke-width="0.8" opacity="0.55"/><line x1="413" y1="549" x2="345" y2="554" stroke="#D4780A" stroke-width="0.8" opacity="0.55"/><line x1="370" y1="133" x2="364" y2="191" stroke="#F5A623" stroke-width="0.8" opacity="0.55"/><line x1="460" y1="538" x2="515" y2="562" stroke="#F5A623" stroke-width="0.8" opacity="0.55"/><line x1="689" y1="391" x2="627" y2="424" stroke="#F08800" stroke-width="0.8" opacity="0.55"/><line x1="590" y1="686" x2="656" y2="702" stroke="#E8921A" stroke-width="0.8" opacity="0.55"/><line x1="460" y1="538" x2="416" y2="532" stroke="#D4780A" stroke-width="0.8" opacity="0.55"/><line x1="445" y1="726" x2="455" y2="728" stroke="#F08800" stroke-width="0.8" opacity="0.55"/><line x1="311" y1="455" x2="263" y2="429" stroke="#D4780A" stroke-width="0.8" opacity="0.55"/><line x1="617" y1="486" x2="659" y2="460" stroke="#F08800" stroke-width="0.8" opacity="0.55"/><line x1="633" y1="454" x2="627" y2="424" stroke="#D4780A" stroke-width="0.8" opacity="0.55"/><line x1="211" y1="190" x2="244" y2="240" stroke="#C06800" stroke-width="0.8" opacity="0.55"/><line x1="693" y1="692" x2="656" y2="702" stroke="#D4780A" stroke-width="0.8" opacity="0.55"/><line x1="233" y1="455" x2="216" y2="445" stroke="#C06800" stroke-width="0.8" opacity="0.55"/><line x1="611" y1="304" x2="581" y2="356" stroke="#F5A623" stroke-width="0.8" opacity="0.55"/><line x1="637" y1="444" x2="652" y2="482" stroke="#F08800" stroke-width="0.8" opacity="0.55"/><line x1="633" y1="454" x2="642" y2="511" stroke="#F5A623" stroke-width="0.8" opacity="0.55"/><line x1="367" y1="401" x2="365" y2="422" stroke="#F08800" stroke-width="0.8" opacity="0.55"/><line x1="529" y1="241" x2="546" y2="316" stroke="#F08800" stroke-width="0.8" opacity="0.55"/><line x1="633" y1="281" x2="682" y2="259" stroke="#D4780A" stroke-width="0.8" opacity="0.55"/><line x1="309" y1="654" x2="348" y2="708" stroke="#F5A623" stroke-width="0.8" opacity="0.55"/><line x1="298" y1="417" x2="285" y2="409" stroke="#E8921A" stroke-width="0.8" opacity="0.55"/><line x1="216" y1="445" x2="216" y2="412" stroke="#C06800" stroke-width="0.8" opacity="0.55"/><line x1="481" y1="269" x2="444" y2="236" stroke="#F08800" stroke-width="0.8" opacity="0.55"/><line x1="545" y1="386" x2="549" y2="417" stroke="#F5A623" stroke-width="0.8" opacity="0.55"/><line x1="211" y1="361" x2="216" y2="412" stroke="#F08800" stroke-width="0.8" opacity="0.55"/><line x1="216" y1="445" x2="263" y2="429" stroke="#E8921A" stroke-width="0.8" opacity="0.55"/><line x1="694" y1="486" x2="722" y2="565" stroke="#E8921A" stroke-width="0.8" opacity="0.55"/><line x1="512" y1="331" x2="538" y2="364" stroke="#E8921A" stroke-width="0.8" opacity="0.55"/><line x1="629" y1="271" x2="682" y2="259" stroke="#F08800" stroke-width="0.8" opacity="0.55"/><line x1="503" y1="564" x2="515" y2="562" stroke="#F5A623" stroke-width="0.8" opacity="0.55"/><line x1="216" y1="445" x2="168" y2="464" stroke="#C06800" stroke-width="0.8" opacity="0.55"/><line x1="211" y1="361" x2="168" y2="404" stroke="#F08800" stroke-width="0.8" opacity="0.55"/><line x1="306" y1="445" x2="365" y2="422" stroke="#E8921A" stroke-width="0.8" opacity="0.55"/><line x1="546" y1="343" x2="545" y2="386" stroke="#C06800" stroke-width="0.8" opacity="0.55"/><line x1="652" y1="482" x2="642" y2="511" stroke="#E8921A" stroke-width="0.8" opacity="0.55"/><line x1="150" y1="649" x2="159" y2="646" stroke="#E8921A" stroke-width="0.8" opacity="0.55"/><line x1="652" y1="482" x2="627" y2="424" stroke="#D4780A" stroke-width="0.8" opacity="0.55"/><line x1="546" y1="343" x2="512" y2="331" stroke="#D4780A" stroke-width="0.8" opacity="0.55"/><line x1="285" y1="409" x2="311" y2="455" stroke="#E8921A" stroke-width="0.8" opacity="0.55"/><line x1="546" y1="343" x2="581" y2="356" stroke="#F5A623" stroke-width="0.8" opacity="0.55"/><line x1="590" y1="686" x2="577" y2="700" stroke="#F08800" stroke-width="0.8" opacity="0.55"/><line x1="365" y1="422" x2="391" y2="393" stroke="#C06800" stroke-width="0.8" opacity="0.55"/><line x1="445" y1="726" x2="460" y2="789" stroke="#F08800" stroke-width="0.8" opacity="0.55"/><line x1="489" y1="312" x2="546" y2="316" stroke="#F5A623" stroke-width="0.8" opacity="0.55"/><circle cx="590" cy="686" r="4.5" fill="#E8921A" opacity="0.80"/><circle cx="309" cy="290" r="4.5" fill="#FFB340" opacity="0.80"/><circle cx="514" cy="747" r="4.5" fill="#E8921A" opacity="0.80"/><circle cx="529" cy="241" r="4.5" fill="#F08800" opacity="0.80"/><circle cx="306" cy="445" r="6.0" fill="#F5A623" opacity="0.92"/><circle cx="633" cy="454" r="6.0" fill="#F08800" opacity="0.92"/><circle cx="367" cy="401" r="5.0" fill="#FF9F0A" opacity="0.83"/><circle cx="489" cy="312" r="6.0" fill="#FFB340" opacity="0.92"/><circle cx="460" cy="538" r="5.0" fill="#D4780A" opacity="0.83"/><circle cx="738" cy="446" r="3.0" fill="#F5A623" opacity="0.71"/><circle cx="629" cy="271" r="3.5" fill="#F5A623" opacity="0.74"/><circle cx="617" cy="486" r="6.0" fill="#FFB340" opacity="0.92"/><circle cx="340" cy="452" r="6.0" fill="#FF9500" opacity="0.89"/><circle cx="624" cy="396" r="4.5" fill="#FF9F0A" opacity="0.80"/><circle cx="625" cy="707" r="4.0" fill="#FF9500" opacity="0.77"/><circle cx="693" cy="692" r="3.0" fill="#F5A623" opacity="0.71"/><circle cx="225" cy="518" r="3.5" fill="#FF9F0A" opacity="0.74"/><circle cx="331" cy="630" r="3.5" fill="#E8921A" opacity="0.74"/><circle cx="484" cy="530" r="5.5" fill="#FF9500" opacity="0.86"/><circle cx="546" cy="343" r="5.5" fill="#FF9F0A" opacity="0.86"/><circle cx="476" cy="316" r="5.5" fill="#D4780A" opacity="0.86"/><circle cx="777" cy="385" r="2.5" fill="#D4780A" opacity="0.68"/><circle cx="459" cy="155" r="3.0" fill="#FF9500" opacity="0.71"/><circle cx="200" cy="311" r="3.5" fill="#FF9500" opacity="0.74"/><circle cx="603" cy="598" r="3.0" fill="#FF9500" opacity="0.71"/><circle cx="512" cy="331" r="6.0" fill="#F08800" opacity="0.95"/><circle cx="743" cy="296" r="3.5" fill="#D4780A" opacity="0.74"/><circle cx="297" cy="548" r="6.0" fill="#FF9F0A" opacity="0.89"/><circle cx="272" cy="506" r="6.0" fill="#F5A623" opacity="0.95"/><circle cx="637" cy="444" r="6.0" fill="#FF9F0A" opacity="0.92"/><circle cx="552" cy="467" r="4.5" fill="#F08800" opacity="0.80"/><circle cx="378" cy="96" r="3.0" fill="#E8921A" opacity="0.71"/><circle cx="233" cy="455" r="5.5" fill="#F08800" opacity="0.86"/><circle cx="173" cy="359" r="4.0" fill="#D4780A" opacity="0.77"/><circle cx="494" cy="697" r="4.0" fill="#FFB340" opacity="0.77"/><circle cx="211" cy="361" r="4.0" fill="#D4780A" opacity="0.77"/><circle cx="503" cy="564" r="4.5" fill="#FF9F0A" opacity="0.80"/><circle cx="252" cy="729" r="3.0" fill="#FF9F0A" opacity="0.71"/><circle cx="309" cy="654" r="4.5" fill="#D4780A" opacity="0.80"/><circle cx="413" cy="549" r="4.5" fill="#FF9F0A" opacity="0.80"/><circle cx="734" cy="574" r="4.0" fill="#FF9500" opacity="0.77"/><circle cx="481" cy="269" r="5.5" fill="#FF9500" opacity="0.86"/><circle cx="340" cy="203" r="3.5" fill="#E8921A" opacity="0.74"/><circle cx="733" cy="241" r="3.5" fill="#D4780A" opacity="0.74"/><circle cx="150" cy="649" r="2.5" fill="#FFB340" opacity="0.68"/><circle cx="689" cy="391" r="3.0" fill="#E8921A" opacity="0.71"/><circle cx="611" cy="304" r="4.0" fill="#F5A623" opacity="0.77"/><circle cx="345" cy="554" r="5.5" fill="#FFB340" opacity="0.86"/><circle cx="538" cy="364" r="6.0" fill="#FF9F0A" opacity="0.89"/><circle cx="729" cy="580" r="4.0" fill="#D4780A" opacity="0.77"/><circle cx="482" cy="237" r="4.0" fill="#FFB340" opacity="0.77"/><circle cx="498" cy="372" r="6.0" fill="#E8921A" opacity="0.89"/><circle cx="442" cy="609" r="2.5" fill="#FFB340" opacity="0.68"/><circle cx="340" cy="511" r="6.0" fill="#FF9500" opacity="0.89"/><circle cx="607" cy="523" r="4.5" fill="#FF9500" opacity="0.80"/><circle cx="739" cy="238" r="3.5" fill="#FF9F0A" opacity="0.74"/><circle cx="444" cy="236" r="3.5" fill="#F5A623" opacity="0.74"/><circle cx="445" cy="802" r="2.5" fill="#F08800" opacity="0.68"/><circle cx="168" cy="404" r="4.5" fill="#D4780A" opacity="0.80"/><circle cx="585" cy="474" r="6.0" fill="#E8921A" opacity="0.95"/><circle cx="610" cy="191" r="2.5" fill="#E8921A" opacity="0.68"/><circle cx="633" cy="281" r="3.5" fill="#F5A623" opacity="0.74"/><circle cx="233" cy="559" r="4.5" fill="#FFB340" opacity="0.80"/><circle cx="546" cy="316" r="6.0" fill="#F08800" opacity="0.92"/><circle cx="298" cy="417" r="6.0" fill="#F08800" opacity="0.89"/><circle cx="459" cy="371" r="4.5" fill="#FF9F0A" opacity="0.80"/><circle cx="312" cy="128" r="3.0" fill="#F08800" opacity="0.71"/><circle cx="694" cy="486" r="5.5" fill="#F08800" opacity="0.86"/><circle cx="252" cy="198" r="3.5" fill="#E8921A" opacity="0.74"/><circle cx="320" cy="374" r="6.0" fill="#F5A623" opacity="0.89"/><circle cx="159" cy="646" r="3.0" fill="#D4780A" opacity="0.71"/><circle cx="545" cy="386" r="5.5" fill="#E8921A" opacity="0.86"/><circle cx="536" cy="508" r="5.0" fill="#E8921A" opacity="0.83"/><circle cx="652" cy="482" r="6.0" fill="#E8921A" opacity="0.92"/><circle cx="656" cy="702" r="3.5" fill="#F5A623" opacity="0.74"/><circle cx="387" cy="357" r="4.0" fill="#FF9500" opacity="0.77"/><circle cx="285" cy="409" r="6.0" fill="#E8921A" opacity="0.89"/><circle cx="311" cy="455" r="6.0" fill="#FFB340" opacity="0.92"/><circle cx="515" cy="562" r="4.5" fill="#E8921A" opacity="0.80"/><circle cx="248" cy="645" r="4.5" fill="#E8921A" opacity="0.80"/><circle cx="365" cy="422" r="6.0" fill="#FF9500" opacity="0.89"/><circle cx="370" cy="133" r="4.0" fill="#F5A623" opacity="0.77"/><circle cx="496" cy="150" r="2.5" fill="#E8921A" opacity="0.68"/><circle cx="659" cy="460" r="5.5" fill="#FF9500" opacity="0.86"/><circle cx="722" cy="565" r="4.5" fill="#FF9F0A" opacity="0.80"/><circle cx="577" cy="700" r="3.5" fill="#F5A623" opacity="0.74"/><circle cx="445" cy="726" r="4.0" fill="#FF9F0A" opacity="0.77"/><circle cx="416" cy="532" r="3.5" fill="#D4780A" opacity="0.74"/><circle cx="323" cy="556" r="5.5" fill="#F5A623" opacity="0.86"/><circle cx="581" cy="356" r="6.0" fill="#FFB340" opacity="0.89"/><circle cx="216" cy="445" r="4.5" fill="#F5A623" opacity="0.80"/><circle cx="549" cy="417" r="5.0" fill="#E8921A" opacity="0.83"/><circle cx="271" cy="318" r="3.5" fill="#FF9F0A" opacity="0.74"/><circle cx="416" cy="98" r="3.5" fill="#FF9F0A" opacity="0.74"/><circle cx="348" cy="708" r="2.5" fill="#E8921A" opacity="0.68"/><circle cx="216" cy="412" r="6.0" fill="#FF9500" opacity="0.89"/><circle cx="736" cy="571" r="4.0" fill="#F5A623" opacity="0.77"/><circle cx="627" cy="424" r="6.0" fill="#F5A623" opacity="0.89"/><circle cx="300" cy="779" r="2.5" fill="#FFB340" opacity="0.68"/><circle cx="527" cy="512" r="5.5" fill="#E8921A" opacity="0.86"/><circle cx="728" cy="588" r="4.0" fill="#E8921A" opacity="0.77"/><circle cx="463" cy="245" r="5.0" fill="#FF9500" opacity="0.83"/><circle cx="391" cy="393" r="4.5" fill="#FF9500" opacity="0.80"/><circle cx="325" cy="289" r="3.0" fill="#F5A623" opacity="0.71"/><circle cx="263" cy="429" r="5.5" fill="#E8921A" opacity="0.86"/><circle cx="335" cy="532" r="5.0" fill="#E8921A" opacity="0.83"/><circle cx="642" cy="511" r="6.0" fill="#D4780A" opacity="0.92"/><circle cx="455" cy="728" r="4.0" fill="#FF9500" opacity="0.77"/><circle cx="567" cy="191" r="3.0" fill="#FFB340" opacity="0.71"/><circle cx="311" cy="489" r="6.0" fill="#FFB340" opacity="0.92"/><circle cx="288" cy="593" r="6.0" fill="#FF9500" opacity="0.89"/><circle cx="211" cy="190" r="3.0" fill="#FF9F0A" opacity="0.71"/><circle cx="634" cy="559" r="3.5" fill="#FF9F0A" opacity="0.74"/><circle cx="168" cy="464" r="4.0" fill="#FFB340" opacity="0.77"/><circle cx="682" cy="259" r="4.5" fill="#F5A623" opacity="0.80"/><circle cx="244" cy="240" r="3.5" fill="#D4780A" opacity="0.74"/><circle cx="291" cy="169" r="3.5" fill="#F08800" opacity="0.74"/><circle cx="364" cy="191" r="3.0" fill="#F08800" opacity="0.71"/><circle cx="460" cy="789" r="4.0" fill="#FFB340" opacity="0.77"/><circle cx="259" cy="616" r="4.5" fill="#FF9F0A" opacity="0.80"/><circle cx="590" cy="686" r="8" fill="#F08800" opacity="0.95"/><circle cx="590" cy="686" r="16" fill="#F08800" opacity="0.35"/><circle cx="309" cy="290" r="8" fill="#F08800" opacity="0.95"/><circle cx="309" cy="290" r="16" fill="#F08800" opacity="0.35"/><circle cx="514" cy="747" r="8" fill="#F08800" opacity="0.95"/><circle cx="514" cy="747" r="16" fill="#F08800" opacity="0.35"/><circle cx="529" cy="241" r="8" fill="#F08800" opacity="0.95"/><circle cx="529" cy="241" r="16" fill="#F08800" opacity="0.35"/><circle cx="306" cy="445" r="8" fill="#F08800" opacity="0.95"/><circle cx="306" cy="445" r="16" fill="#F08800" opacity="0.35"/></svg>