<svg xmlns="http://www.w3.org/2000/svg" width="900" height="1200">
<rect width="900" height="1200" fill="none"/>
<line x1="306" y1="209" x2="158" y2="172" stroke="#007AFF" stroke-width="0.4" opacity="0.13"/><line x1="306" y1="209" x2="178" y2="171" stroke="#007AFF" stroke-width="0.4" opacity="0.13"/><line x1="306" y1="209" x2="184" y2="300" stroke="#5AC8FA" stroke-width="0.4" opacity="0.16"/><line x1="574" y1="121" x2="489" y2="110" stroke="#64D2FF" stroke-width="0.4" opacity="0.1"/><line x1="574" y1="121" x2="594" y2="100" stroke="#5AC8FA" stroke-width="0.4" opacity="0.13"/><line x1="479" y1="450" x2="513" y2="484" stroke="#5AC8FA" stroke-width="0.4" opacity="0.12"/><line x1="479" y1="450" x2="564" y2="457" stroke="#64D2FF" stroke-width="0.4" opacity="0.09"/><line x1="479" y1="450" x2="598" y2="519" stroke="#0A84FF" stroke-width="0.4" opacity="0.14"/><line x1="479" y1="450" x2="412" y2="376" stroke="#5AC8FA" stroke-width="0.4" opacity="0.15"/><line x1="479" y1="450" x2="516" y2="551" stroke="#007AFF" stroke-width="0.4" opacity="0.18"/><line x1="479" y1="450" x2="523" y2="334" stroke="#0A84FF" stroke-width="0.4" opacity="0.1"/><line x1="88" y1="608" x2="71" y2="526" stroke="#0A84FF" stroke-width="0.4" opacity="0.19"/><line x1="88" y1="608" x2="188" y2="691" stroke="#5AC8FA" stroke-width="0.4" opacity="0.14"/><line x1="88" y1="608" x2="165" y2="588" stroke="#007AFF" stroke-width="0.4" opacity="0.18"/><line x1="88" y1="608" x2="59" y2="557" stroke="#0A84FF" stroke-width="0.4" opacity="0.14"/><line x1="88" y1="608" x2="106" y2="543" stroke="#5AC8FA" stroke-width="0.4" opacity="0.09"/><line x1="88" y1="608" x2="231" y2="583" stroke="#0A84FF" stroke-width="0.4" opacity="0.17"/><line x1="88" y1="608" x2="43" y2="509" stroke="#64D2FF" stroke-width="0.4" opacity="0.14"/><line x1="71" y1="526" x2="165" y2="588" stroke="#64D2FF" stroke-width="0.4" opacity="0.14"/><line x1="71" y1="526" x2="59" y2="557" stroke="#0A84FF" stroke-width="0.4" opacity="0.19"/><line x1="71" y1="526" x2="106" y2="543" stroke="#5AC8FA" stroke-width="0.4" opacity="0.1"/><line x1="71" y1="526" x2="43" y2="509" stroke="#0A84FF" stroke-width="0.4" opacity="0.17"/><line x1="97" y1="142" x2="142" y2="290" stroke="#5AC8FA" stroke-width="0.4" opacity="0.2"/><line x1="97" y1="142" x2="158" y2="172" stroke="#0A84FF" stroke-width="0.4" opacity="0.16"/><line x1="97" y1="142" x2="89" y2="271" stroke="#64D2FF" stroke-width="0.4" opacity="0.14"/><line x1="97" y1="142" x2="178" y2="171" stroke="#64D2FF" stroke-width="0.4" opacity="0.12"/><line x1="388" y1="966" x2="293" y2="954" stroke="#0A84FF" stroke-width="0.4" opacity="0.14"/><line x1="388" y1="966" x2="471" y2="1020" stroke="#64D2FF" stroke-width="0.4" opacity="0.16"/><line x1="388" y1="966" x2="383" y2="888" stroke="#007AFF" stroke-width="0.4" opacity="0.18"/><line x1="388" y1="966" x2="361" y2="1016" stroke="#64D2FF" stroke-width="0.4" opacity="0.17"/><line x1="388" y1="966" x2="491" y2="1029" stroke="#007AFF" stroke-width="0.4" opacity="0.1"/><line x1="388" y1="966" x2="334" y2="1030" stroke="#5AC8FA" stroke-width="0.4" opacity="0.12"/><line x1="142" y1="290" x2="158" y2="172" stroke="#0A84FF" stroke-width="0.4" opacity="0.2"/><line x1="142" y1="290" x2="89" y2="271" stroke="#64D2FF" stroke-width="0.4" opacity="0.14"/><line x1="142" y1="290" x2="178" y2="171" stroke="#0A84FF" stroke-width="0.4" opacity="0.16"/><line x1="142" y1="290" x2="146" y2="317" stroke="#0A84FF" stroke-width="0.4" opacity="0.13"/><line x1="142" y1="290" x2="184" y2="300" stroke="#0A84FF" stroke-width="0.4" opacity="0.19"/><line x1="554" y1="1101" x2="471" y2="1020" stroke="#5AC8FA" stroke-width="0.4" opacity="0.09"/><line x1="554" y1="1101" x2="571" y2="1152" stroke="#64D2FF" stroke-width="0.4" opacity="0.11"/><line x1="554" y1="1101" x2="491" y2="1029" stroke="#007AFF" stroke-width="0.4" opacity="0.12"/><line x1="513" y1="484" x2="564" y2="457" stroke="#5AC8FA" stroke-width="0.4" opacity="0.15"/><line x1="513" y1="484" x2="598" y2="519" stroke="#0A84FF" stroke-width="0.4" opacity="0.14"/><line x1="513" y1="484" x2="412" y2="376" stroke="#5AC8FA" stroke-width="0.4" opacity="0.18"/><line x1="513" y1="484" x2="516" y2="551" stroke="#5AC8FA" stroke-width="0.4" opacity="0.18"/><line x1="513" y1="484" x2="523" y2="334" stroke="#64D2FF" stroke-width="0.4" opacity="0.19"/><line x1="841" y1="92" x2="844" y2="172" stroke="#64D2FF" stroke-width="0.4" opacity="0.14"/><line x1="841" y1="92" x2="825" y2="209" stroke="#0A84FF" stroke-width="0.4" opacity="0.13"/><line x1="744" y1="364" x2="638" y2="362" stroke="#007AFF" stroke-width="0.4" opacity="0.09"/><line x1="744" y1="364" x2="758" y2="391" stroke="#5AC8FA" stroke-width="0.4" opacity="0.14"/><line x1="744" y1="364" x2="714" y2="359" stroke="#64D2FF" stroke-width="0.4" opacity="0.17"/><line x1="158" y1="172" x2="89" y2="271" stroke="#5AC8FA" stroke-width="0.4" opacity="0.2"/><line x1="158" y1="172" x2="178" y2="171" stroke="#007AFF" stroke-width="0.4" opacity="0.1"/><line x1="158" y1="172" x2="146" y2="317" stroke="#64D2FF" stroke-width="0.4" opacity="0.18"/><line x1="158" y1="172" x2="184" y2="300" stroke="#007AFF" stroke-width="0.4" opacity="0.15"/><line x1="293" y1="954" x2="383" y2="888" stroke="#0A84FF" stroke-width="0.4" opacity="0.16"/><line x1="293" y1="954" x2="361" y2="1016" stroke="#64D2FF" stroke-width="0.4" opacity="0.1"/><line x1="293" y1="954" x2="334" y2="1030" stroke="#5AC8FA" stroke-width="0.4" opacity="0.08"/><line x1="188" y1="691" x2="298" y2="696" stroke="#64D2FF" stroke-width="0.4" opacity="0.14"/><line x1="188" y1="691" x2="240" y2="683" stroke="#64D2FF" stroke-width="0.4" opacity="0.13"/><line x1="188" y1="691" x2="165" y2="588" stroke="#64D2FF" stroke-width="0.4" opacity="0.18"/><line x1="188" y1="691" x2="72" y2="788" stroke="#64D2FF" stroke-width="0.4" opacity="0.08"/><line x1="188" y1="691" x2="231" y2="583" stroke="#64D2FF" stroke-width="0.4" opacity="0.12"/><line x1="188" y1="691" x2="343" y2="674" stroke="#0A84FF" stroke-width="0.4" opacity="0.17"/><line x1="564" y1="457" x2="598" y2="519" stroke="#007AFF" stroke-width="0.4" opacity="0.11"/><line x1="564" y1="457" x2="638" y2="362" stroke="#5AC8FA" stroke-width="0.4" opacity="0.18"/><line x1="564" y1="457" x2="516" y2="551" stroke="#0A84FF" stroke-width="0.4" opacity="0.19"/><line x1="564" y1="457" x2="523" y2="334" stroke="#007AFF" stroke-width="0.4" opacity="0.19"/><line x1="489" y1="110" x2="594" y2="100" stroke="#64D2FF" stroke-width="0.4" opacity="0.18"/><line x1="89" y1="271" x2="178" y2="171" stroke="#5AC8FA" stroke-width="0.4" opacity="0.14"/><line x1="89" y1="271" x2="146" y2="317" stroke="#64D2FF" stroke-width="0.4" opacity="0.18"/><line x1="89" y1="271" x2="184" y2="300" stroke="#64D2FF" stroke-width="0.4" opacity="0.15"/><line x1="598" y1="519" x2="516" y2="551" stroke="#007AFF" stroke-width="0.4" opacity="0.1"/><line x1="298" y1="696" x2="240" y2="683" stroke="#5AC8FA" stroke-width="0.4" opacity="0.15"/><line x1="298" y1="696" x2="429" y2="784" stroke="#0A84FF" stroke-width="0.4" opacity="0.15"/><line x1="298" y1="696" x2="356" y2="789" stroke="#007AFF" stroke-width="0.4" opacity="0.16"/><line x1="298" y1="696" x2="231" y2="583" stroke="#5AC8FA" stroke-width="0.4" opacity="0.17"/><line x1="298" y1="696" x2="343" y2="674" stroke="#5AC8FA" stroke-width="0.4" opacity="0.19"/><line x1="412" y1="376" x2="523" y2="334" stroke="#0A84FF" stroke-width="0.4" opacity="0.11"/><line x1="691" y1="823" x2="667" y2="682" stroke="#5AC8FA" stroke-width="0.4" opacity="0.09"/><line x1="691" y1="823" x2="610" y2="706" stroke="#5AC8FA" stroke-width="0.4" opacity="0.14"/><line x1="691" y1="823" x2="822" y2="813" stroke="#5AC8FA" stroke-width="0.4" opacity="0.17"/><line x1="691" y1="823" x2="778" y2="914" stroke="#64D2FF" stroke-width="0.4" opacity="0.13"/><line x1="691" y1="823" x2="757" y2="934" stroke="#007AFF" stroke-width="0.4" opacity="0.16"/><line x1="240" y1="683" x2="165" y2="588" stroke="#007AFF" stroke-width="0.4" opacity="0.14"/><line x1="240" y1="683" x2="356" y2="789" stroke="#64D2FF" stroke-width="0.4" opacity="0.14"/><line x1="240" y1="683" x2="231" y2="583" stroke="#0A84FF" stroke-width="0.4" opacity="0.16"/><line x1="240" y1="683" x2="343" y2="674" stroke="#64D2FF" stroke-width="0.4" opacity="0.19"/><line x1="471" y1="1020" x2="383" y2="888" stroke="#64D2FF" stroke-width="0.4" opacity="0.18"/><line x1="471" y1="1020" x2="361" y2="1016" stroke="#007AFF" stroke-width="0.4" opacity="0.13"/><line x1="471" y1="1020" x2="491" y2="1029" stroke="#5AC8FA" stroke-width="0.4" opacity="0.13"/><line x1="471" y1="1020" x2="334" y2="1030" stroke="#007AFF" stroke-width="0.4" opacity="0.16"/><line x1="638" y1="362" x2="758" y2="391" stroke="#0A84FF" stroke-width="0.4" opacity="0.09"/><line x1="638" y1="362" x2="714" y2="359" stroke="#64D2FF" stroke-width="0.4" opacity="0.17"/><line x1="638" y1="362" x2="523" y2="334" stroke="#0A84FF" stroke-width="0.4" opacity="0.19"/><line x1="844" y1="172" x2="825" y2="209" stroke="#64D2FF" stroke-width="0.4" opacity="0.1"/><line x1="383" y1="888" x2="429" y2="784" stroke="#64D2FF" stroke-width="0.4" opacity="0.2"/><line x1="383" y1="888" x2="356" y2="789" stroke="#5AC8FA" stroke-width="0.4" opacity="0.17"/><line x1="383" y1="888" x2="361" y2="1016" stroke="#007AFF" stroke-width="0.4" opacity="0.13"/><line x1="383" y1="888" x2="334" y2="1030" stroke="#64D2FF" stroke-width="0.4" opacity="0.1"/><line x1="165" y1="588" x2="59" y2="557" stroke="#007AFF" stroke-width="0.4" opacity="0.1"/><line x1="165" y1="588" x2="106" y2="543" stroke="#007AFF" stroke-width="0.4" opacity="0.2"/><line x1="165" y1="588" x2="268" y2="505" stroke="#64D2FF" stroke-width="0.4" opacity="0.12"/><line x1="165" y1="588" x2="231" y2="583" stroke="#5AC8FA" stroke-width="0.4" opacity="0.12"/><line x1="165" y1="588" x2="43" y2="509" stroke="#5AC8FA" stroke-width="0.4" opacity="0.17"/><line x1="72" y1="788" x2="90" y2="826" stroke="#007AFF" stroke-width="0.4" opacity="0.12"/><line x1="72" y1="788" x2="88" y2="900" stroke="#5AC8FA" stroke-width="0.4" opacity="0.13"/><line x1="667" y1="682" x2="610" y2="706" stroke="#0A84FF" stroke-width="0.4" opacity="0.13"/><line x1="758" y1="391" x2="714" y2="359" stroke="#5AC8FA" stroke-width="0.4" opacity="0.14"/><line x1="610" y1="706" x2="463" y2="732" stroke="#64D2FF" stroke-width="0.4" opacity="0.09"/><line x1="729" y1="1098" x2="712" y2="1008" stroke="#5AC8FA" stroke-width="0.4" opacity="0.2"/><line x1="429" y1="784" x2="356" y2="789" stroke="#0A84FF" stroke-width="0.4" opacity="0.09"/><line x1="429" y1="784" x2="343" y2="674" stroke="#64D2FF" stroke-width="0.4" opacity="0.08"/><line x1="429" y1="784" x2="463" y2="732" stroke="#64D2FF" stroke-width="0.4" opacity="0.11"/><line x1="90" y1="826" x2="88" y2="900" stroke="#0A84FF" stroke-width="0.4" opacity="0.18"/><line x1="571" y1="1152" x2="491" y2="1029" stroke="#007AFF" stroke-width="0.4" opacity="0.13"/><line x1="356" y1="789" x2="343" y2="674" stroke="#5AC8FA" stroke-width="0.4" opacity="0.16"/><line x1="356" y1="789" x2="463" y2="732" stroke="#64D2FF" stroke-width="0.4" opacity="0.11"/><line x1="59" y1="557" x2="106" y2="543" stroke="#5AC8FA" stroke-width="0.4" opacity="0.13"/><line x1="59" y1="557" x2="43" y2="509" stroke="#5AC8FA" stroke-width="0.4" opacity="0.11"/><line x1="178" y1="171" x2="146" y2="317" stroke="#0A84FF" stroke-width="0.4" opacity="0.16"/><line x1="178" y1="171" x2="184" y2="300" stroke="#64D2FF" stroke-width="0.4" opacity="0.09"/><line x1="146" y1="317" x2="184" y2="300" stroke="#5AC8FA" stroke-width="0.4" opacity="0.09"/><line x1="361" y1="1016" x2="491" y2="1029" stroke="#0A84FF" stroke-width="0.4" opacity="0.13"/><line x1="361" y1="1016" x2="334" y2="1030" stroke="#007AFF" stroke-width="0.4" opacity="0.2"/><line x1="106" y1="543" x2="231" y2="583" stroke="#0A84FF" stroke-width="0.4" opacity="0.19"/><line x1="106" y1="543" x2="43" y2="509" stroke="#5AC8FA" stroke-width="0.4" opacity="0.15"/><line x1="491" y1="1029" x2="334" y2="1030" stroke="#64D2FF" stroke-width="0.4" opacity="0.14"/><line x1="712" y1="1008" x2="778" y2="914" stroke="#64D2FF" stroke-width="0.4" opacity="0.19"/><line x1="712" y1="1008" x2="757" y2="934" stroke="#64D2FF" stroke-width="0.4" opacity="0.11"/><line x1="268" y1="505" x2="231" y2="583" stroke="#0A84FF" stroke-width="0.4" opacity="0.1"/><line x1="231" y1="583" x2="343" y2="674" stroke="#64D2FF" stroke-width="0.4" opacity="0.16"/><line x1="343" y1="674" x2="463" y2="732" stroke="#64D2FF" stroke-width="0.4" opacity="0.11"/><line x1="822" y1="813" x2="778" y2="914" stroke="#5AC8FA" stroke-width="0.4" opacity="0.11"/><line x1="822" y1="813" x2="757" y2="934" stroke="#5AC8FA" stroke-width="0.4" opacity="0.2"/><line x1="778" y1="914" x2="757" y2="934" stroke="#64D2FF" stroke-width="0.4" opacity="0.08"/>
<circle cx="306" cy="209" r="3.3" fill="#007AFF" opacity="0.67"/><circle cx="574" cy="121" r="2.3" fill="#BF5AF2" opacity="0.56"/><circle cx="479" cy="450" r="3.6" fill="#FF9F0A" opacity="0.63"/><circle cx="88" cy="608" r="3.0" fill="#FF9F0A" opacity="0.42"/><circle cx="71" cy="526" r="2.5" fill="#007AFF" opacity="0.44"/><circle cx="97" cy="142" r="4.1" fill="#30D158" opacity="0.59"/><circle cx="388" cy="966" r="2.3" fill="#64D2FF" opacity="0.69"/><circle cx="142" cy="290" r="4.1" fill="#5AC8FA" opacity="0.33"/><circle cx="554" cy="1101" r="3.9" fill="#64D2FF" opacity="0.47"/><circle cx="513" cy="484" r="2.1" fill="#30D158" opacity="0.64"/><circle cx="841" cy="92" r="4.2" fill="#30D158" opacity="0.69"/><circle cx="744" cy="364" r="3.5" fill="#30D158" opacity="0.42"/><circle cx="158" cy="172" r="3.1" fill="#007AFF" opacity="0.41"/><circle cx="293" cy="954" r="2.0" fill="#64D2FF" opacity="0.68"/><circle cx="188" cy="691" r="4.4" fill="#FF9F0A" opacity="0.43"/><circle cx="564" cy="457" r="2.1" fill="#64D2FF" opacity="0.39"/><circle cx="489" cy="110" r="2.5" fill="#64D2FF" opacity="0.45"/><circle cx="89" cy="271" r="3.2" fill="#FF9F0A" opacity="0.56"/><circle cx="598" cy="519" r="2.6" fill="#BF5AF2" opacity="0.30"/><circle cx="298" cy="696" r="2.7" fill="#5AC8FA" opacity="0.36"/><circle cx="412" cy="376" r="3.5" fill="#0A84FF" opacity="0.31"/><circle cx="691" cy="823" r="2.8" fill="#007AFF" opacity="0.33"/><circle cx="240" cy="683" r="4.4" fill="#BF5AF2" opacity="0.60"/><circle cx="471" cy="1020" r="3.6" fill="#30D158" opacity="0.61"/><circle cx="638" cy="362" r="3.5" fill="#BF5AF2" opacity="0.43"/><circle cx="844" cy="172" r="4.5" fill="#007AFF" opacity="0.41"/><circle cx="383" cy="888" r="3.5" fill="#007AFF" opacity="0.32"/><circle cx="165" cy="588" r="4.1" fill="#FF9F0A" opacity="0.55"/><circle cx="72" cy="788" r="3.8" fill="#BF5AF2" opacity="0.50"/><circle cx="667" cy="682" r="4.3" fill="#BF5AF2" opacity="0.50"/><circle cx="758" cy="391" r="4.1" fill="#BF5AF2" opacity="0.31"/><circle cx="610" cy="706" r="3.7" fill="#BF5AF2" opacity="0.66"/><circle cx="516" cy="551" r="3.7" fill="#30D158" opacity="0.56"/><circle cx="729" cy="1098" r="2.2" fill="#5AC8FA" opacity="0.35"/><circle cx="429" cy="784" r="2.9" fill="#5AC8FA" opacity="0.45"/><circle cx="90" cy="826" r="3.1" fill="#5AC8FA" opacity="0.55"/><circle cx="571" cy="1152" r="3.6" fill="#30D158" opacity="0.40"/><circle cx="714" cy="359" r="2.7" fill="#0A84FF" opacity="0.62"/><circle cx="356" cy="789" r="3.9" fill="#FF9F0A" opacity="0.66"/><circle cx="59" cy="557" r="2.2" fill="#FF9F0A" opacity="0.33"/><circle cx="178" cy="171" r="3.8" fill="#64D2FF" opacity="0.62"/><circle cx="88" cy="900" r="4.1" fill="#007AFF" opacity="0.59"/><circle cx="146" cy="317" r="2.5" fill="#30D158" opacity="0.56"/><circle cx="361" cy="1016" r="3.2" fill="#BF5AF2" opacity="0.45"/><circle cx="106" cy="543" r="3.2" fill="#30D158" opacity="0.41"/><circle cx="491" cy="1029" r="2.1" fill="#30D158" opacity="0.56"/><circle cx="712" cy="1008" r="2.2" fill="#007AFF" opacity="0.43"/><circle cx="268" cy="505" r="3.6" fill="#30D158" opacity="0.42"/><circle cx="334" cy="1030" r="3.4" fill="#5AC8FA" opacity="0.49"/><circle cx="825" cy="209" r="3.2" fill="#30D158" opacity="0.34"/><circle cx="184" cy="300" r="2.5" fill="#0A84FF" opacity="0.42"/><circle cx="231" cy="583" r="3.3" fill="#0A84FF" opacity="0.49"/><circle cx="523" cy="334" r="3.9" fill="#FF9F0A" opacity="0.38"/><circle cx="43" cy="509" r="4.4" fill="#0A84FF" opacity="0.31"/><circle cx="343" cy="674" r="3.1" fill="#BF5AF2" opacity="0.50"/><circle cx="822" cy="813" r="4.5" fill="#64D2FF" opacity="0.45"/><circle cx="463" cy="732" r="4.3" fill="#007AFF" opacity="0.33"/><circle cx="594" cy="100" r="2.2" fill="#30D158" opacity="0.51"/><circle cx="778" cy="914" r="4.4" fill="#007AFF" opacity="0.54"/><circle cx="757" cy="934" r="3.6" fill="#64D2FF" opacity="0.65"/><circle cx="491" cy="1029" r="6" fill="#FF9F0A" opacity="0.85"/><circle cx="188" cy="691" r="6" fill="#FF9F0A" opacity="0.85"/><circle cx="594" cy="100" r="6" fill="#FF9F0A" opacity="0.85"/><circle cx="844" cy="172" r="6" fill="#007AFF" opacity="0.85"/><circle cx="841" cy="92" r="6" fill="#007AFF" opacity="0.85"/>
</svg>