<svg xmlns="http://www.w3.org/2000/svg" width="900" height="1200"><rect width="900" height="1200" fill="none"/><line x1="480" y1="671" x2="526" y2="651" stroke="#007AFF" stroke-width="0.5" opacity="0.21"/><line x1="358" y1="692" x2="353" y2="654" stroke="#007AFF" stroke-width="0.5" opacity="0.14"/><line x1="316" y1="571" x2="336" y2="533" stroke="#007AFF" stroke-width="0.5" opacity="0.20"/><line x1="323" y1="596" x2="316" y2="571" stroke="#5AC8FA" stroke-width="0.5" opacity="0.12"/><line x1="353" y1="382" x2="328" y2="316" stroke="#64D2FF" stroke-width="0.5" opacity="0.14"/><line x1="608" y1="442" x2="612" y2="451" stroke="#007AFF" stroke-width="0.5" opacity="0.19"/><line x1="275" y1="846" x2="272" y2="772" stroke="#5AC8FA" stroke-width="0.5" opacity="0.17"/><line x1="507" y1="862" x2="446" y2="910" stroke="#5AC8FA" stroke-width="0.5" opacity="0.16"/><line x1="458" y1="678" x2="480" y2="671" stroke="#BF5AF2" stroke-width="0.5" opacity="0.21"/><line x1="611" y1="603" x2="635" y2="609" stroke="#007AFF" stroke-width="0.5" opacity="0.22"/><line x1="573" y1="808" x2="605" y2="827" stroke="#64D2FF" stroke-width="0.5" opacity="0.18"/><line x1="377" y1="557" x2="394" y2="518" stroke="#64D2FF" stroke-width="0.5" opacity="0.18"/><line x1="458" y1="678" x2="417" y2="688" stroke="#0A84FF" stroke-width="0.5" opacity="0.18"/><line x1="534" y1="505" x2="527" y2="524" stroke="#64D2FF" stroke-width="0.5" opacity="0.13"/><line x1="628" y1="629" x2="635" y2="609" stroke="#5AC8FA" stroke-width="0.5" opacity="0.14"/><line x1="325" y1="458" x2="353" y2="382" stroke="#0A84FF" stroke-width="0.5" opacity="0.21"/><line x1="605" y1="827" x2="664" y2="814" stroke="#64D2FF" stroke-width="0.5" opacity="0.21"/><line x1="353" y1="382" x2="275" y2="378" stroke="#BF5AF2" stroke-width="0.5" opacity="0.12"/><line x1="478" y1="412" x2="445" y2="411" stroke="#BF5AF2" stroke-width="0.5" opacity="0.18"/><line x1="507" y1="862" x2="489" y2="818" stroke="#007AFF" stroke-width="0.5" opacity="0.12"/><line x1="540" y1="615" x2="569" y2="621" stroke="#007AFF" stroke-width="0.5" opacity="0.16"/><line x1="704" y1="596" x2="665" y2="632" stroke="#007AFF" stroke-width="0.5" opacity="0.16"/><line x1="615" y1="595" x2="661" y2="548" stroke="#0A84FF" stroke-width="0.5" opacity="0.18"/><line x1="592" y1="472" x2="612" y2="451" stroke="#007AFF" stroke-width="0.5" opacity="0.17"/><line x1="597" y1="632" x2="628" y2="629" stroke="#5AC8FA" stroke-width="0.5" opacity="0.12"/><line x1="704" y1="596" x2="738" y2="543" stroke="#64D2FF" stroke-width="0.5" opacity="0.10"/><line x1="709" y1="464" x2="705" y2="413" stroke="#0A84FF" stroke-width="0.5" opacity="0.10"/><line x1="185" y1="775" x2="272" y2="772" stroke="#BF5AF2" stroke-width="0.5" opacity="0.17"/><line x1="315" y1="686" x2="358" y2="692" stroke="#007AFF" stroke-width="0.5" opacity="0.17"/><line x1="480" y1="671" x2="507" y2="699" stroke="#007AFF" stroke-width="0.5" opacity="0.13"/><line x1="480" y1="671" x2="420" y2="672" stroke="#5AC8FA" stroke-width="0.5" opacity="0.21"/><line x1="458" y1="678" x2="443" y2="741" stroke="#64D2FF" stroke-width="0.5" opacity="0.11"/><line x1="701" y1="710" x2="690" y2="701" stroke="#0A84FF" stroke-width="0.5" opacity="0.12"/><line x1="387" y1="288" x2="380" y2="320" stroke="#0A84FF" stroke-width="0.5" opacity="0.21"/><line x1="353" y1="601" x2="327" y2="605" stroke="#0A84FF" stroke-width="0.5" opacity="0.12"/><line x1="605" y1="827" x2="632" y2="822" stroke="#BF5AF2" stroke-width="0.5" opacity="0.20"/><line x1="699" y1="416" x2="705" y2="413" stroke="#007AFF" stroke-width="0.5" opacity="0.16"/><line x1="527" y1="524" x2="492" y2="531" stroke="#5AC8FA" stroke-width="0.5" opacity="0.14"/><line x1="458" y1="678" x2="497" y2="700" stroke="#007AFF" stroke-width="0.5" opacity="0.15"/><line x1="206" y1="520" x2="239" y2="522" stroke="#BF5AF2" stroke-width="0.5" opacity="0.13"/><line x1="473" y1="482" x2="458" y2="530" stroke="#BF5AF2" stroke-width="0.5" opacity="0.20"/><line x1="252" y1="660" x2="293" y2="650" stroke="#BF5AF2" stroke-width="0.5" opacity="0.21"/><line x1="316" y1="571" x2="327" y2="605" stroke="#5AC8FA" stroke-width="0.5" opacity="0.18"/><line x1="417" y1="688" x2="420" y2="672" stroke="#5AC8FA" stroke-width="0.5" opacity="0.11"/><line x1="534" y1="505" x2="535" y2="482" stroke="#64D2FF" stroke-width="0.5" opacity="0.12"/><line x1="597" y1="632" x2="569" y2="621" stroke="#007AFF" stroke-width="0.5" opacity="0.20"/><line x1="611" y1="603" x2="628" y2="629" stroke="#BF5AF2" stroke-width="0.5" opacity="0.16"/><line x1="336" y1="533" x2="305" y2="564" stroke="#007AFF" stroke-width="0.5" opacity="0.16"/><line x1="605" y1="827" x2="562" y2="821" stroke="#0A84FF" stroke-width="0.5" opacity="0.12"/><line x1="230" y1="477" x2="206" y2="520" stroke="#64D2FF" stroke-width="0.5" opacity="0.14"/><line x1="701" y1="710" x2="696" y2="715" stroke="#0A84FF" stroke-width="0.5" opacity="0.18"/><line x1="328" y1="316" x2="275" y2="378" stroke="#5AC8FA" stroke-width="0.5" opacity="0.21"/><line x1="738" y1="543" x2="661" y2="548" stroke="#5AC8FA" stroke-width="0.5" opacity="0.18"/><line x1="325" y1="458" x2="336" y2="533" stroke="#64D2FF" stroke-width="0.5" opacity="0.16"/><line x1="315" y1="686" x2="338" y2="694" stroke="#64D2FF" stroke-width="0.5" opacity="0.14"/><line x1="489" y1="818" x2="446" y2="910" stroke="#0A84FF" stroke-width="0.5" opacity="0.11"/><line x1="507" y1="862" x2="446" y2="844" stroke="#5AC8FA" stroke-width="0.5" opacity="0.17"/><line x1="446" y1="910" x2="446" y2="844" stroke="#0A84FF" stroke-width="0.5" opacity="0.18"/><line x1="458" y1="340" x2="491" y2="335" stroke="#007AFF" stroke-width="0.5" opacity="0.12"/><line x1="709" y1="464" x2="699" y2="416" stroke="#5AC8FA" stroke-width="0.5" opacity="0.13"/><line x1="323" y1="596" x2="327" y2="605" stroke="#0A84FF" stroke-width="0.5" opacity="0.16"/><line x1="206" y1="520" x2="201" y2="560" stroke="#007AFF" stroke-width="0.5" opacity="0.12"/><line x1="230" y1="477" x2="239" y2="522" stroke="#64D2FF" stroke-width="0.5" opacity="0.19"/><line x1="505" y1="495" x2="535" y2="482" stroke="#BF5AF2" stroke-width="0.5" opacity="0.15"/><line x1="696" y1="715" x2="690" y2="701" stroke="#0A84FF" stroke-width="0.5" opacity="0.20"/><line x1="611" y1="603" x2="569" y2="621" stroke="#64D2FF" stroke-width="0.5" opacity="0.16"/><line x1="597" y1="632" x2="589" y2="665" stroke="#0A84FF" stroke-width="0.5" opacity="0.17"/><line x1="611" y1="603" x2="603" y2="552" stroke="#64D2FF" stroke-width="0.5" opacity="0.10"/><line x1="492" y1="531" x2="458" y2="530" stroke="#0A84FF" stroke-width="0.5" opacity="0.16"/><line x1="699" y1="416" x2="612" y2="451" stroke="#64D2FF" stroke-width="0.5" opacity="0.20"/><line x1="484" y1="478" x2="477" y2="440" stroke="#007AFF" stroke-width="0.5" opacity="0.20"/><line x1="315" y1="686" x2="293" y2="650" stroke="#0A84FF" stroke-width="0.5" opacity="0.18"/><line x1="252" y1="660" x2="258" y2="696" stroke="#64D2FF" stroke-width="0.5" opacity="0.18"/><line x1="353" y1="382" x2="380" y2="320" stroke="#BF5AF2" stroke-width="0.5" opacity="0.16"/><line x1="615" y1="595" x2="635" y2="609" stroke="#5AC8FA" stroke-width="0.5" opacity="0.22"/><line x1="592" y1="371" x2="612" y2="451" stroke="#007AFF" stroke-width="0.5" opacity="0.13"/><line x1="484" y1="478" x2="505" y2="495" stroke="#007AFF" stroke-width="0.5" opacity="0.21"/><line x1="520" y1="416" x2="491" y2="335" stroke="#0A84FF" stroke-width="0.5" opacity="0.10"/><line x1="608" y1="442" x2="592" y2="371" stroke="#0A84FF" stroke-width="0.5" opacity="0.12"/><line x1="185" y1="775" x2="258" y2="696" stroke="#0A84FF" stroke-width="0.5" opacity="0.17"/><line x1="540" y1="615" x2="526" y2="651" stroke="#007AFF" stroke-width="0.5" opacity="0.18"/><line x1="358" y1="692" x2="338" y2="694" stroke="#64D2FF" stroke-width="0.5" opacity="0.12"/><line x1="325" y1="458" x2="394" y2="518" stroke="#BF5AF2" stroke-width="0.5" opacity="0.16"/><line x1="345" y1="759" x2="325" y2="780" stroke="#007AFF" stroke-width="0.5" opacity="0.12"/><line x1="527" y1="524" x2="534" y2="543" stroke="#BF5AF2" stroke-width="0.5" opacity="0.17"/><line x1="701" y1="710" x2="665" y2="632" stroke="#007AFF" stroke-width="0.5" opacity="0.19"/><line x1="345" y1="759" x2="358" y2="692" stroke="#0A84FF" stroke-width="0.5" opacity="0.21"/><line x1="325" y1="780" x2="272" y2="772" stroke="#64D2FF" stroke-width="0.5" opacity="0.15"/><line x1="477" y1="440" x2="478" y2="412" stroke="#64D2FF" stroke-width="0.5" opacity="0.14"/><line x1="738" y1="543" x2="709" y2="464" stroke="#0A84FF" stroke-width="0.5" opacity="0.17"/><line x1="336" y1="533" x2="394" y2="518" stroke="#5AC8FA" stroke-width="0.5" opacity="0.21"/><line x1="480" y1="671" x2="497" y2="700" stroke="#BF5AF2" stroke-width="0.5" opacity="0.19"/><line x1="505" y1="495" x2="492" y2="531" stroke="#64D2FF" stroke-width="0.5" opacity="0.19"/><line x1="325" y1="458" x2="275" y2="378" stroke="#64D2FF" stroke-width="0.5" opacity="0.21"/><line x1="417" y1="688" x2="443" y2="741" stroke="#BF5AF2" stroke-width="0.5" opacity="0.14"/><line x1="573" y1="808" x2="664" y2="814" stroke="#BF5AF2" stroke-width="0.5" opacity="0.14"/><line x1="611" y1="603" x2="615" y2="595" stroke="#64D2FF" stroke-width="0.5" opacity="0.13"/><line x1="573" y1="808" x2="585" y2="731" stroke="#007AFF" stroke-width="0.5" opacity="0.17"/><line x1="520" y1="416" x2="477" y2="440" stroke="#007AFF" stroke-width="0.5" opacity="0.19"/><line x1="507" y1="862" x2="562" y2="821" stroke="#64D2FF" stroke-width="0.5" opacity="0.18"/><line x1="520" y1="416" x2="478" y2="412" stroke="#0A84FF" stroke-width="0.5" opacity="0.12"/><line x1="387" y1="288" x2="328" y2="316" stroke="#007AFF" stroke-width="0.5" opacity="0.13"/><line x1="704" y1="596" x2="661" y2="548" stroke="#007AFF" stroke-width="0.5" opacity="0.13"/><line x1="484" y1="478" x2="473" y2="482" stroke="#BF5AF2" stroke-width="0.5" opacity="0.20"/><line x1="252" y1="660" x2="258" y2="605" stroke="#64D2FF" stroke-width="0.5" opacity="0.10"/><line x1="608" y1="442" x2="592" y2="472" stroke="#0A84FF" stroke-width="0.5" opacity="0.17"/><line x1="323" y1="596" x2="353" y2="601" stroke="#0A84FF" stroke-width="0.5" opacity="0.19"/><line x1="353" y1="601" x2="375" y2="576" stroke="#64D2FF" stroke-width="0.5" opacity="0.22"/><line x1="603" y1="552" x2="661" y2="548" stroke="#007AFF" stroke-width="0.5" opacity="0.12"/><line x1="323" y1="596" x2="305" y2="564" stroke="#5AC8FA" stroke-width="0.5" opacity="0.10"/><line x1="585" y1="731" x2="589" y2="665" stroke="#BF5AF2" stroke-width="0.5" opacity="0.14"/><line x1="489" y1="818" x2="446" y2="844" stroke="#007AFF" stroke-width="0.5" opacity="0.12"/><line x1="478" y1="412" x2="491" y2="335" stroke="#64D2FF" stroke-width="0.5" opacity="0.20"/><line x1="345" y1="759" x2="272" y2="772" stroke="#BF5AF2" stroke-width="0.5" opacity="0.20"/><line x1="345" y1="759" x2="338" y2="694" stroke="#007AFF" stroke-width="0.5" opacity="0.18"/><line x1="328" y1="316" x2="380" y2="320" stroke="#5AC8FA" stroke-width="0.5" opacity="0.14"/><line x1="458" y1="340" x2="445" y2="411" stroke="#64D2FF" stroke-width="0.5" opacity="0.16"/><line x1="377" y1="557" x2="336" y2="533" stroke="#007AFF" stroke-width="0.5" opacity="0.14"/><line x1="603" y1="552" x2="615" y2="595" stroke="#BF5AF2" stroke-width="0.5" opacity="0.18"/><line x1="665" y1="632" x2="628" y2="629" stroke="#BF5AF2" stroke-width="0.5" opacity="0.19"/><line x1="458" y1="340" x2="387" y2="288" stroke="#5AC8FA" stroke-width="0.5" opacity="0.20"/><line x1="573" y1="808" x2="632" y2="822" stroke="#5AC8FA" stroke-width="0.5" opacity="0.14"/><line x1="458" y1="678" x2="420" y2="672" stroke="#0A84FF" stroke-width="0.5" opacity="0.19"/><line x1="275" y1="846" x2="325" y2="780" stroke="#007AFF" stroke-width="0.5" opacity="0.20"/><line x1="664" y1="814" x2="632" y2="822" stroke="#64D2FF" stroke-width="0.5" opacity="0.17"/><line x1="377" y1="557" x2="375" y2="576" stroke="#0A84FF" stroke-width="0.5" opacity="0.21"/><line x1="520" y1="416" x2="535" y2="482" stroke="#5AC8FA" stroke-width="0.5" opacity="0.19"/><line x1="316" y1="571" x2="305" y2="564" stroke="#64D2FF" stroke-width="0.5" opacity="0.18"/><line x1="477" y1="440" x2="445" y2="411" stroke="#64D2FF" stroke-width="0.5" opacity="0.19"/><line x1="665" y1="632" x2="690" y2="701" stroke="#0A84FF" stroke-width="0.5" opacity="0.11"/><line x1="323" y1="596" x2="375" y2="576" stroke="#BF5AF2" stroke-width="0.5" opacity="0.14"/><line x1="497" y1="700" x2="507" y2="699" stroke="#64D2FF" stroke-width="0.5" opacity="0.16"/><line x1="239" y1="522" x2="201" y2="560" stroke="#64D2FF" stroke-width="0.5" opacity="0.16"/><line x1="185" y1="775" x2="193" y2="773" stroke="#007AFF" stroke-width="0.5" opacity="0.13"/><line x1="534" y1="505" x2="565" y2="517" stroke="#0A84FF" stroke-width="0.5" opacity="0.21"/><line x1="573" y1="808" x2="562" y2="821" stroke="#BF5AF2" stroke-width="0.5" opacity="0.14"/><line x1="534" y1="505" x2="505" y2="495" stroke="#64D2FF" stroke-width="0.5" opacity="0.20"/><line x1="611" y1="603" x2="597" y2="632" stroke="#0A84FF" stroke-width="0.5" opacity="0.11"/><line x1="473" y1="482" x2="505" y2="495" stroke="#007AFF" stroke-width="0.5" opacity="0.11"/><line x1="505" y1="495" x2="527" y2="524" stroke="#BF5AF2" stroke-width="0.5" opacity="0.18"/><line x1="615" y1="595" x2="628" y2="629" stroke="#5AC8FA" stroke-width="0.5" opacity="0.22"/><line x1="534" y1="505" x2="534" y2="543" stroke="#64D2FF" stroke-width="0.5" opacity="0.17"/><line x1="665" y1="632" x2="635" y2="609" stroke="#007AFF" stroke-width="0.5" opacity="0.16"/><line x1="527" y1="524" x2="565" y2="517" stroke="#BF5AF2" stroke-width="0.5" opacity="0.22"/><line x1="534" y1="543" x2="565" y2="517" stroke="#0A84FF" stroke-width="0.5" opacity="0.15"/><line x1="597" y1="632" x2="615" y2="595" stroke="#5AC8FA" stroke-width="0.5" opacity="0.18"/><line x1="473" y1="482" x2="477" y2="440" stroke="#0A84FF" stroke-width="0.5" opacity="0.12"/><line x1="527" y1="524" x2="535" y2="482" stroke="#007AFF" stroke-width="0.5" opacity="0.19"/><line x1="353" y1="654" x2="338" y2="694" stroke="#007AFF" stroke-width="0.5" opacity="0.19"/><line x1="492" y1="531" x2="534" y2="543" stroke="#BF5AF2" stroke-width="0.5" opacity="0.13"/><line x1="597" y1="632" x2="635" y2="609" stroke="#64D2FF" stroke-width="0.5" opacity="0.10"/><line x1="535" y1="482" x2="565" y2="517" stroke="#007AFF" stroke-width="0.5" opacity="0.20"/><line x1="305" y1="564" x2="327" y2="605" stroke="#BF5AF2" stroke-width="0.5" opacity="0.21"/><line x1="589" y1="665" x2="569" y2="621" stroke="#5AC8FA" stroke-width="0.5" opacity="0.14"/><line x1="353" y1="601" x2="316" y2="571" stroke="#64D2FF" stroke-width="0.5" opacity="0.12"/><line x1="534" y1="505" x2="492" y2="531" stroke="#0A84FF" stroke-width="0.5" opacity="0.14"/><line x1="315" y1="686" x2="353" y2="654" stroke="#0A84FF" stroke-width="0.5" opacity="0.14"/><line x1="526" y1="651" x2="507" y2="699" stroke="#5AC8FA" stroke-width="0.5" opacity="0.15"/><line x1="377" y1="557" x2="353" y2="601" stroke="#64D2FF" stroke-width="0.5" opacity="0.12"/><line x1="484" y1="478" x2="535" y2="482" stroke="#BF5AF2" stroke-width="0.5" opacity="0.12"/><line x1="603" y1="552" x2="565" y2="517" stroke="#64D2FF" stroke-width="0.5" opacity="0.13"/><line x1="353" y1="601" x2="353" y2="654" stroke="#5AC8FA" stroke-width="0.5" opacity="0.12"/><line x1="473" y1="482" x2="492" y2="531" stroke="#5AC8FA" stroke-width="0.5" opacity="0.18"/><line x1="592" y1="472" x2="565" y2="517" stroke="#5AC8FA" stroke-width="0.5" opacity="0.19"/><line x1="569" y1="621" x2="526" y2="651" stroke="#64D2FF" stroke-width="0.5" opacity="0.18"/><line x1="458" y1="678" x2="507" y2="699" stroke="#64D2FF" stroke-width="0.5" opacity="0.16"/><line x1="484" y1="478" x2="492" y2="531" stroke="#5AC8FA" stroke-width="0.5" opacity="0.19"/><line x1="615" y1="595" x2="569" y2="621" stroke="#64D2FF" stroke-width="0.5" opacity="0.17"/><line x1="589" y1="665" x2="628" y2="629" stroke="#5AC8FA" stroke-width="0.5" opacity="0.13"/><line x1="353" y1="654" x2="327" y2="605" stroke="#007AFF" stroke-width="0.5" opacity="0.17"/><line x1="327" y1="605" x2="375" y2="576" stroke="#BF5AF2" stroke-width="0.5" opacity="0.18"/><line x1="505" y1="495" x2="534" y2="543" stroke="#5AC8FA" stroke-width="0.5" opacity="0.15"/><line x1="293" y1="650" x2="258" y2="605" stroke="#0A84FF" stroke-width="0.5" opacity="0.20"/><line x1="293" y1="650" x2="327" y2="605" stroke="#0A84FF" stroke-width="0.5" opacity="0.21"/><line x1="497" y1="700" x2="526" y2="651" stroke="#007AFF" stroke-width="0.5" opacity="0.10"/><line x1="484" y1="478" x2="534" y2="505" stroke="#007AFF" stroke-width="0.5" opacity="0.11"/><line x1="293" y1="650" x2="258" y2="696" stroke="#007AFF" stroke-width="0.5" opacity="0.19"/><line x1="336" y1="533" x2="375" y2="576" stroke="#BF5AF2" stroke-width="0.5" opacity="0.16"/><line x1="315" y1="686" x2="258" y2="696" stroke="#5AC8FA" stroke-width="0.5" opacity="0.21"/><line x1="484" y1="478" x2="458" y2="530" stroke="#5AC8FA" stroke-width="0.5" opacity="0.19"/><circle cx="573" cy="808" r="3.8" fill="#64D2FF" opacity="0.60"/><circle cx="325" cy="458" r="3.4" fill="#BF5AF2" opacity="0.55"/><circle cx="507" cy="862" r="3.4" fill="#0A84FF" opacity="0.55"/><circle cx="520" cy="416" r="3.4" fill="#30D158" opacity="0.55"/><circle cx="323" cy="596" r="3.8" fill="#64D2FF" opacity="0.60"/><circle cx="611" cy="603" r="4.2" fill="#FF9F0A" opacity="0.65"/><circle cx="377" cy="557" r="3.4" fill="#BF5AF2" opacity="0.55"/><circle cx="484" cy="478" r="4.6" fill="#007AFF" opacity="0.70"/><circle cx="458" cy="678" r="4.2" fill="#64D2FF" opacity="0.65"/><circle cx="704" cy="596" r="3.0" fill="#64D2FF" opacity="0.50"/><circle cx="608" cy="442" r="3.0" fill="#64D2FF" opacity="0.50"/><circle cx="597" cy="632" r="4.2" fill="#30D158" opacity="0.65"/><circle cx="353" cy="601" r="4.2" fill="#0A84FF" opacity="0.65"/><circle cx="603" cy="552" r="3.4" fill="#30D158" opacity="0.55"/><circle cx="605" cy="827" r="3.4" fill="#64D2FF" opacity="0.55"/><circle cx="664" cy="814" r="3.0" fill="#0A84FF" opacity="0.50"/><circle cx="252" cy="660" r="3.0" fill="#BF5AF2" opacity="0.50"/><circle cx="345" cy="759" r="3.4" fill="#64D2FF" opacity="0.55"/><circle cx="480" cy="671" r="3.8" fill="#5AC8FA" opacity="0.60"/><circle cx="534" cy="505" r="4.6" fill="#5AC8FA" opacity="0.70"/><circle cx="473" cy="482" r="3.8" fill="#64D2FF" opacity="0.60"/><circle cx="738" cy="543" r="3.0" fill="#FF9F0A" opacity="0.50"/><circle cx="458" cy="340" r="3.0" fill="#5AC8FA" opacity="0.50"/><circle cx="230" cy="477" r="2.6" fill="#0A84FF" opacity="0.45"/><circle cx="585" cy="731" r="2.6" fill="#64D2FF" opacity="0.45"/><circle cx="505" cy="495" r="4.6" fill="#BF5AF2" opacity="0.70"/><circle cx="709" cy="464" r="3.0" fill="#BF5AF2" opacity="0.50"/><circle cx="315" cy="686" r="3.8" fill="#007AFF" opacity="0.60"/><circle cx="293" cy="650" r="3.8" fill="#BF5AF2" opacity="0.60"/><circle cx="615" cy="595" r="4.6" fill="#30D158" opacity="0.70"/><circle cx="540" cy="615" r="2.6" fill="#007AFF" opacity="0.45"/><circle cx="387" cy="288" r="3.0" fill="#64D2FF" opacity="0.50"/><circle cx="258" cy="605" r="2.6" fill="#64D2FF" opacity="0.45"/><circle cx="206" cy="520" r="3.0" fill="#0A84FF" opacity="0.50"/><circle cx="489" cy="818" r="3.0" fill="#5AC8FA" opacity="0.50"/><circle cx="239" cy="522" r="3.0" fill="#64D2FF" opacity="0.50"/><circle cx="497" cy="700" r="3.4" fill="#30D158" opacity="0.55"/><circle cx="275" cy="846" r="2.6" fill="#30D158" opacity="0.45"/><circle cx="325" cy="780" r="3.0" fill="#0A84FF" opacity="0.50"/><circle cx="417" cy="688" r="3.0" fill="#007AFF" opacity="0.50"/><circle cx="701" cy="710" r="3.0" fill="#5AC8FA" opacity="0.50"/><circle cx="477" cy="440" r="3.8" fill="#64D2FF" opacity="0.60"/><circle cx="353" cy="382" r="3.4" fill="#30D158" opacity="0.55"/><circle cx="699" cy="416" r="3.0" fill="#BF5AF2" opacity="0.50"/><circle cx="185" cy="775" r="3.0" fill="#BF5AF2" opacity="0.50"/><circle cx="661" cy="548" r="3.4" fill="#0A84FF" opacity="0.55"/><circle cx="592" cy="472" r="3.0" fill="#FF9F0A" opacity="0.50"/><circle cx="358" cy="692" r="3.4" fill="#30D158" opacity="0.55"/><circle cx="527" cy="524" r="4.2" fill="#5AC8FA" opacity="0.65"/><circle cx="696" cy="715" r="2.6" fill="#30D158" opacity="0.45"/><circle cx="478" cy="412" r="3.4" fill="#0A84FF" opacity="0.55"/><circle cx="492" cy="531" r="4.6" fill="#007AFF" opacity="0.70"/><circle cx="443" cy="741" r="2.6" fill="#FF9F0A" opacity="0.45"/><circle cx="353" cy="654" r="3.8" fill="#64D2FF" opacity="0.60"/><circle cx="589" cy="665" r="3.4" fill="#30D158" opacity="0.55"/><circle cx="705" cy="413" r="2.6" fill="#007AFF" opacity="0.45"/><circle cx="445" cy="411" r="3.0" fill="#5AC8FA" opacity="0.50"/><circle cx="446" cy="910" r="3.0" fill="#0A84FF" opacity="0.50"/><circle cx="201" cy="560" r="2.6" fill="#30D158" opacity="0.45"/><circle cx="569" cy="621" r="4.2" fill="#64D2FF" opacity="0.65"/><circle cx="592" cy="371" r="2.6" fill="#FF9F0A" opacity="0.45"/><circle cx="612" cy="451" r="3.4" fill="#64D2FF" opacity="0.55"/><circle cx="258" cy="696" r="3.4" fill="#0A84FF" opacity="0.55"/><circle cx="535" cy="482" r="4.2" fill="#007AFF" opacity="0.65"/><circle cx="316" cy="571" r="3.8" fill="#BF5AF2" opacity="0.60"/><circle cx="458" cy="530" r="3.0" fill="#5AC8FA" opacity="0.50"/><circle cx="328" cy="316" r="3.4" fill="#0A84FF" opacity="0.55"/><circle cx="665" cy="632" r="3.8" fill="#FF9F0A" opacity="0.60"/><circle cx="275" cy="378" r="3.0" fill="#007AFF" opacity="0.50"/><circle cx="336" cy="533" r="4.2" fill="#007AFF" opacity="0.65"/><circle cx="193" cy="773" r="2.2" fill="#5AC8FA" opacity="0.40"/><circle cx="534" cy="543" r="3.8" fill="#007AFF" opacity="0.60"/><circle cx="526" cy="651" r="3.8" fill="#007AFF" opacity="0.60"/><circle cx="628" cy="629" r="4.2" fill="#007AFF" opacity="0.65"/><circle cx="632" cy="822" r="3.0" fill="#BF5AF2" opacity="0.50"/><circle cx="394" cy="518" r="3.0" fill="#64D2FF" opacity="0.50"/><circle cx="305" cy="564" r="3.4" fill="#5AC8FA" opacity="0.55"/><circle cx="327" cy="605" r="4.6" fill="#30D158" opacity="0.70"/><circle cx="507" cy="699" r="3.4" fill="#BF5AF2" opacity="0.55"/><circle cx="272" cy="772" r="3.4" fill="#007AFF" opacity="0.55"/><circle cx="375" cy="576" r="3.8" fill="#BF5AF2" opacity="0.60"/><circle cx="380" cy="320" r="3.0" fill="#30D158" opacity="0.50"/><circle cx="491" cy="335" r="3.0" fill="#0A84FF" opacity="0.50"/><circle cx="635" cy="609" r="3.8" fill="#007AFF" opacity="0.60"/><circle cx="690" cy="701" r="3.0" fill="#30D158" opacity="0.50"/><circle cx="562" cy="821" r="3.0" fill="#64D2FF" opacity="0.50"/><circle cx="446" cy="844" r="3.0" fill="#FF9F0A" opacity="0.50"/><circle cx="420" cy="672" r="3.0" fill="#BF5AF2" opacity="0.50"/><circle cx="338" cy="694" r="3.4" fill="#0A84FF" opacity="0.55"/><circle cx="565" cy="517" r="4.2" fill="#007AFF" opacity="0.65"/><circle cx="573" cy="808" r="7" fill="#FF9F0A" opacity="0.85"/><circle cx="573" cy="808" r="14" fill="#FF9F0A" opacity="0.2"/><circle cx="325" cy="458" r="7" fill="#FF9F0A" opacity="0.85"/><circle cx="325" cy="458" r="14" fill="#FF9F0A" opacity="0.2"/><circle cx="507" cy="862" r="7" fill="#FF9F0A" opacity="0.85"/><circle cx="507" cy="862" r="14" fill="#FF9F0A" opacity="0.2"/><circle cx="520" cy="416" r="7" fill="#FF9F0A" opacity="0.85"/><circle cx="520" cy="416" r="14" fill="#FF9F0A" opacity="0.2"/><circle cx="323" cy="596" r="7" fill="#FF9F0A" opacity="0.85"/><circle cx="323" cy="596" r="14" fill="#FF9F0A" opacity="0.2"/></svg>