<svg xmlns="http://www.w3.org/2000/svg" width="900" height="1200"><rect width="900" height="1200" fill="none"/><line x1="610" y1="341" x2="567" y2="341" stroke="#C06800" stroke-width="0.8" opacity="0.55"/><line x1="484" y1="680" x2="536" y2="658" stroke="#F5A623" stroke-width="0.8" opacity="0.55"/><line x1="297" y1="698" x2="335" y2="682" stroke="#E8921A" stroke-width="0.8" opacity="0.55"/><line x1="345" y1="704" x2="340" y2="661" stroke="#F08800" stroke-width="0.8" opacity="0.55"/><line x1="298" y1="567" x2="320" y2="524" stroke="#E8921A" stroke-width="0.8" opacity="0.55"/><line x1="306" y1="595" x2="298" y2="567" stroke="#F08800" stroke-width="0.8" opacity="0.55"/><line x1="624" y1="546" x2="627" y2="574" stroke="#D4780A" stroke-width="0.8" opacity="0.55"/><line x1="512" y1="481" x2="481" y2="419" stroke="#E8921A" stroke-width="0.8" opacity="0.55"/><line x1="585" y1="624" x2="652" y2="632" stroke="#F5A623" stroke-width="0.8" opacity="0.55"/><line x1="323" y1="706" x2="311" y2="639" stroke="#C06800" stroke-width="0.8" opacity="0.55"/><line x1="546" y1="466" x2="581" y2="506" stroke="#E8921A" stroke-width="0.8" opacity="0.55"/><line x1="484" y1="680" x2="527" y2="662" stroke="#F5A623" stroke-width="0.8" opacity="0.55"/><line x1="629" y1="421" x2="633" y2="431" stroke="#C06800" stroke-width="0.8" opacity="0.55"/><line x1="252" y1="879" x2="248" y2="795" stroke="#F08800" stroke-width="0.8" opacity="0.55"/><line x1="378" y1="246" x2="416" y2="248" stroke="#C06800" stroke-width="0.8" opacity="0.55"/><line x1="460" y1="688" x2="484" y2="680" stroke="#D4780A" stroke-width="0.8" opacity="0.55"/><line x1="498" y1="522" x2="545" y2="536" stroke="#D4780A" stroke-width="0.8" opacity="0.55"/><line x1="633" y1="604" x2="659" y2="610" stroke="#F5A623" stroke-width="0.8" opacity="0.55"/><line x1="590" y1="836" x2="625" y2="857" stroke="#E8921A" stroke-width="0.8" opacity="0.55"/><line x1="444" y1="386" x2="463" y2="395" stroke="#D4780A" stroke-width="0.8" opacity="0.55"/><line x1="538" y1="514" x2="546" y2="466" stroke="#E8921A" stroke-width="0.8" opacity="0.55"/><line x1="168" y1="554" x2="216" y2="562" stroke="#F08800" stroke-width="0.8" opacity="0.55"/><line x1="637" y1="594" x2="585" y2="624" stroke="#F08800" stroke-width="0.8" opacity="0.55"/><line x1="233" y1="605" x2="285" y2="559" stroke="#C06800" stroke-width="0.8" opacity="0.55"/><line x1="489" y1="462" x2="459" y2="521" stroke="#E8921A" stroke-width="0.8" opacity="0.55"/><line x1="739" y1="388" x2="682" y2="409" stroke="#F08800" stroke-width="0.8" opacity="0.55"/><line x1="367" y1="551" x2="387" y2="507" stroke="#F5A623" stroke-width="0.8" opacity="0.55"/><line x1="168" y1="554" x2="168" y2="614" stroke="#F5A623" stroke-width="0.8" opacity="0.55"/><line x1="460" y1="688" x2="413" y2="699" stroke="#F08800" stroke-width="0.8" opacity="0.55"/><line x1="489" y1="462" x2="546" y2="493" stroke="#C06800" stroke-width="0.8" opacity="0.55"/><line x1="335" y1="682" x2="311" y2="639" stroke="#F08800" stroke-width="0.8" opacity="0.55"/><line x1="512" y1="481" x2="581" y2="506" stroke="#E8921A" stroke-width="0.8" opacity="0.55"/><line x1="546" y1="493" x2="538" y2="514" stroke="#C06800" stroke-width="0.8" opacity="0.55"/><line x1="652" y1="632" x2="659" y2="610" stroke="#E8921A" stroke-width="0.8" opacity="0.55"/><line x1="309" y1="440" x2="340" y2="353" stroke="#E8921A" stroke-width="0.8" opacity="0.55"/><line x1="298" y1="567" x2="365" y2="572" stroke="#C06800" stroke-width="0.8" opacity="0.55"/><line x1="633" y1="604" x2="694" y2="636" stroke="#F08800" stroke-width="0.8" opacity="0.55"/><line x1="309" y1="440" x2="244" y2="390" stroke="#D4780A" stroke-width="0.8" opacity="0.55"/><line x1="625" y1="857" x2="693" y2="842" stroke="#E8921A" stroke-width="0.8" opacity="0.55"/><line x1="489" y1="462" x2="463" y2="395" stroke="#D4780A" stroke-width="0.8" opacity="0.55"/><line x1="233" y1="709" x2="288" y2="743" stroke="#D4780A" stroke-width="0.8" opacity="0.55"/><line x1="309" y1="804" x2="288" y2="743" stroke="#D4780A" stroke-width="0.8" opacity="0.55"/><line x1="617" y1="636" x2="552" y2="617" stroke="#D4780A" stroke-width="0.8" opacity="0.55"/><line x1="607" y1="673" x2="642" y2="661" stroke="#D4780A" stroke-width="0.8" opacity="0.55"/><line x1="309" y1="804" x2="259" y2="766" stroke="#C06800" stroke-width="0.8" opacity="0.55"/><line x1="340" y1="602" x2="311" y2="639" stroke="#F08800" stroke-width="0.8" opacity="0.55"/><line x1="498" y1="522" x2="549" y2="567" stroke="#E8921A" stroke-width="0.8" opacity="0.55"/><line x1="173" y1="509" x2="216" y2="562" stroke="#D4780A" stroke-width="0.8" opacity="0.55"/><line x1="297" y1="698" x2="311" y2="639" stroke="#C06800" stroke-width="0.8" opacity="0.55"/><line x1="482" y1="387" x2="444" y2="386" stroke="#F08800" stroke-width="0.8" opacity="0.55"/><line x1="514" y1="897" x2="494" y2="847" stroke="#F5A623" stroke-width="0.8" opacity="0.55"/><line x1="272" y1="656" x2="340" y2="661" stroke="#E8921A" stroke-width="0.8" opacity="0.55"/><line x1="459" y1="521" x2="391" y2="543" stroke="#E8921A" stroke-width="0.8" opacity="0.55"/><line x1="340" y1="353" x2="291" y2="319" stroke="#F5A623" stroke-width="0.8" opacity="0.55"/><line x1="272" y1="656" x2="233" y2="709" stroke="#F08800" stroke-width="0.8" opacity="0.55"/><line x1="552" y1="617" x2="585" y2="624" stroke="#F08800" stroke-width="0.8" opacity="0.55"/><line x1="514" y1="897" x2="455" y2="878" stroke="#F5A623" stroke-width="0.8" opacity="0.55"/><line x1="248" y1="795" x2="288" y2="743" stroke="#F5A623" stroke-width="0.8" opacity="0.55"/><line x1="738" y1="596" x2="694" y2="636" stroke="#C06800" stroke-width="0.8" opacity="0.55"/><line x1="734" y1="724" x2="728" y2="738" stroke="#C06800" stroke-width="0.8" opacity="0.55"/><line x1="252" y1="348" x2="291" y2="319" stroke="#F5A623" stroke-width="0.8" opacity="0.55"/><line x1="722" y1="715" x2="728" y2="738" stroke="#D4780A" stroke-width="0.8" opacity="0.55"/><line x1="611" y1="454" x2="633" y2="431" stroke="#C06800" stroke-width="0.8" opacity="0.55"/><line x1="617" y1="636" x2="652" y2="632" stroke="#D4780A" stroke-width="0.8" opacity="0.55"/><line x1="738" y1="596" x2="777" y2="535" stroke="#D4780A" stroke-width="0.8" opacity="0.55"/><line x1="743" y1="446" x2="739" y2="388" stroke="#E8921A" stroke-width="0.8" opacity="0.55"/><line x1="476" y1="466" x2="498" y2="522" stroke="#F5A623" stroke-width="0.8" opacity="0.55"/><line x1="489" y1="462" x2="498" y2="522" stroke="#C06800" stroke-width="0.8" opacity="0.55"/><line x1="168" y1="554" x2="216" y2="595" stroke="#E8921A" stroke-width="0.8" opacity="0.55"/><line x1="529" y1="391" x2="567" y2="341" stroke="#F5A623" stroke-width="0.8" opacity="0.55"/><line x1="345" y1="704" x2="335" y2="682" stroke="#F08800" stroke-width="0.8" opacity="0.55"/><line x1="481" y1="419" x2="463" y2="395" stroke="#E8921A" stroke-width="0.8" opacity="0.55"/><line x1="297" y1="698" x2="345" y2="704" stroke="#D4780A" stroke-width="0.8" opacity="0.55"/><line x1="484" y1="680" x2="515" y2="712" stroke="#F08800" stroke-width="0.8" opacity="0.55"/><line x1="309" y1="440" x2="271" y2="468" stroke="#F5A623" stroke-width="0.8" opacity="0.55"/><line x1="285" y1="559" x2="216" y2="562" stroke="#F08800" stroke-width="0.8" opacity="0.55"/><line x1="331" y1="780" x2="288" y2="743" stroke="#E8921A" stroke-width="0.8" opacity="0.55"/><line x1="484" y1="680" x2="416" y2="682" stroke="#E8921A" stroke-width="0.8" opacity="0.55"/><line x1="285" y1="559" x2="263" y2="579" stroke="#C06800" stroke-width="0.8" opacity="0.55"/><line x1="331" y1="780" x2="259" y2="766" stroke="#D4780A" stroke-width="0.8" opacity="0.55"/><line x1="734" y1="724" x2="722" y2="715" stroke="#C06800" stroke-width="0.8" opacity="0.55"/><line x1="378" y1="246" x2="370" y2="283" stroke="#F5A623" stroke-width="0.8" opacity="0.55"/><line x1="340" y1="602" x2="311" y2="605" stroke="#F08800" stroke-width="0.8" opacity="0.55"/><line x1="625" y1="857" x2="656" y2="852" stroke="#E8921A" stroke-width="0.8" opacity="0.55"/><line x1="729" y1="730" x2="736" y2="721" stroke="#D4780A" stroke-width="0.8" opacity="0.55"/><line x1="733" y1="391" x2="739" y2="388" stroke="#D4780A" stroke-width="0.8" opacity="0.55"/><line x1="538" y1="514" x2="498" y2="522" stroke="#C06800" stroke-width="0.8" opacity="0.55"/><line x1="514" y1="897" x2="460" y2="939" stroke="#E8921A" stroke-width="0.8" opacity="0.55"/><line x1="445" y1="952" x2="460" y2="939" stroke="#E8921A" stroke-width="0.8" opacity="0.55"/><line x1="611" y1="454" x2="546" y2="466" stroke="#C06800" stroke-width="0.8" opacity="0.55"/><line x1="585" y1="624" x2="549" y2="567" stroke="#C06800" stroke-width="0.8" opacity="0.55"/><line x1="340" y1="661" x2="335" y2="682" stroke="#D4780A" stroke-width="0.8" opacity="0.55"/><line x1="529" y1="391" x2="463" y2="395" stroke="#F5A623" stroke-width="0.8" opacity="0.55"/><line x1="271" y1="468" x2="325" y2="439" stroke="#C06800" stroke-width="0.8" opacity="0.55"/><line x1="306" y1="595" x2="311" y2="639" stroke="#F5A623" stroke-width="0.8" opacity="0.55"/><line x1="552" y1="617" x2="549" y2="567" stroke="#F5A623" stroke-width="0.8" opacity="0.55"/><line x1="460" y1="688" x2="503" y2="714" stroke="#D4780A" stroke-width="0.8" opacity="0.55"/><line x1="173" y1="509" x2="211" y2="511" stroke="#E8921A" stroke-width="0.8" opacity="0.55"/><line x1="476" y1="466" x2="459" y2="521" stroke="#E8921A" stroke-width="0.8" opacity="0.55"/><line x1="225" y1="668" x2="272" y2="656" stroke="#F5A623" stroke-width="0.8" opacity="0.55"/><line x1="298" y1="567" x2="311" y2="605" stroke="#D4780A" stroke-width="0.8" opacity="0.55"/><line x1="370" y1="283" x2="416" y2="248" stroke="#C06800" stroke-width="0.8" opacity="0.55"/><line x1="340" y1="661" x2="311" y2="605" stroke="#C06800" stroke-width="0.8" opacity="0.55"/><line x1="309" y1="440" x2="325" y2="439" stroke="#C06800" stroke-width="0.8" opacity="0.55"/><line x1="413" y1="699" x2="416" y2="682" stroke="#C06800" stroke-width="0.8" opacity="0.55"/><line x1="546" y1="493" x2="546" y2="466" stroke="#D4780A" stroke-width="0.8" opacity="0.55"/><line x1="311" y1="605" x2="365" y2="572" stroke="#D4780A" stroke-width="0.8" opacity="0.55"/><line x1="617" y1="636" x2="585" y2="624" stroke="#F08800" stroke-width="0.8" opacity="0.55"/><line x1="252" y1="348" x2="211" y2="340" stroke="#E8921A" stroke-width="0.8" opacity="0.55"/><line x1="633" y1="604" x2="652" y2="632" stroke="#F08800" stroke-width="0.8" opacity="0.55"/><line x1="320" y1="524" x2="285" y2="559" stroke="#E8921A" stroke-width="0.8" opacity="0.55"/><line x1="367" y1="551" x2="391" y2="543" stroke="#F08800" stroke-width="0.8" opacity="0.55"/><line x1="625" y1="857" x2="577" y2="850" stroke="#F08800" stroke-width="0.8" opacity="0.55"/><line x1="734" y1="724" x2="729" y2="730" stroke="#F08800" stroke-width="0.8" opacity="0.55"/><line x1="216" y1="562" x2="263" y2="579" stroke="#F5A623" stroke-width="0.8" opacity="0.55"/><line x1="200" y1="461" x2="173" y2="509" stroke="#F5A623" stroke-width="0.8" opacity="0.55"/><line x1="743" y1="446" x2="682" y2="409" stroke="#F5A623" stroke-width="0.8" opacity="0.55"/><line x1="387" y1="507" x2="365" y2="572" stroke="#E8921A" stroke-width="0.8" opacity="0.55"/><line x1="216" y1="562" x2="168" y2="614" stroke="#C06800" stroke-width="0.8" opacity="0.55"/><line x1="476" y1="466" x2="463" y2="395" stroke="#F5A623" stroke-width="0.8" opacity="0.55"/><line x1="297" y1="698" x2="323" y2="706" stroke="#E8921A" stroke-width="0.8" opacity="0.55"/><line x1="309" y1="440" x2="320" y2="524" stroke="#F08800" stroke-width="0.8" opacity="0.55"/><line x1="694" y1="636" x2="642" y2="661" stroke="#F08800" stroke-width="0.8" opacity="0.55"/><line x1="233" y1="709" x2="259" y2="766" stroke="#F08800" stroke-width="0.8" opacity="0.55"/><line x1="272" y1="656" x2="233" y2="605" stroke="#F5A623" stroke-width="0.8" opacity="0.55"/><line x1="345" y1="704" x2="311" y2="639" stroke="#E8921A" stroke-width="0.8" opacity="0.55"/><line x1="624" y1="546" x2="581" y2="506" stroke="#F5A623" stroke-width="0.8" opacity="0.55"/><line x1="514" y1="897" x2="445" y2="876" stroke="#C06800" stroke-width="0.8" opacity="0.55"/><line x1="590" y1="836" x2="494" y2="847" stroke="#D4780A" stroke-width="0.8" opacity="0.55"/><line x1="272" y1="656" x2="335" y2="682" stroke="#F08800" stroke-width="0.8" opacity="0.55"/><line x1="323" y1="706" x2="288" y2="743" stroke="#D4780A" stroke-width="0.8" opacity="0.55"/><line x1="459" y1="305" x2="496" y2="300" stroke="#E8921A" stroke-width="0.8" opacity="0.55"/><line x1="633" y1="604" x2="617" y2="636" stroke="#F5A623" stroke-width="0.8" opacity="0.55"/><line x1="729" y1="730" x2="728" y2="738" stroke="#F5A623" stroke-width="0.8" opacity="0.55"/><line x1="637" y1="594" x2="627" y2="574" stroke="#E8921A" stroke-width="0.8" opacity="0.55"/><line x1="733" y1="391" x2="682" y2="409" stroke="#F08800" stroke-width="0.8" opacity="0.55"/><line x1="743" y1="446" x2="733" y2="391" stroke="#C06800" stroke-width="0.8" opacity="0.55"/><line x1="306" y1="595" x2="311" y2="605" stroke="#F08800" stroke-width="0.8" opacity="0.55"/><line x1="173" y1="509" x2="168" y2="554" stroke="#D4780A" stroke-width="0.8" opacity="0.55"/><line x1="312" y1="278" x2="291" y2="319" stroke="#E8921A" stroke-width="0.8" opacity="0.55"/><line x1="200" y1="461" x2="211" y2="511" stroke="#E8921A" stroke-width="0.8" opacity="0.55"/><line x1="637" y1="594" x2="642" y2="661" stroke="#C06800" stroke-width="0.8" opacity="0.55"/><line x1="484" y1="680" x2="413" y2="699" stroke="#D4780A" stroke-width="0.8" opacity="0.55"/><line x1="489" y1="462" x2="538" y2="514" stroke="#F5A623" stroke-width="0.8" opacity="0.55"/><line x1="248" y1="795" x2="259" y2="766" stroke="#F08800" stroke-width="0.8" opacity="0.55"/><line x1="515" y1="712" x2="527" y2="662" stroke="#E8921A" stroke-width="0.8" opacity="0.55"/><line x1="512" y1="481" x2="546" y2="466" stroke="#E8921A" stroke-width="0.8" opacity="0.55"/><line x1="340" y1="661" x2="311" y2="639" stroke="#C06800" stroke-width="0.8" opacity="0.55"/><line x1="306" y1="595" x2="263" y2="579" stroke="#F5A623" stroke-width="0.8" opacity="0.55"/><line x1="482" y1="387" x2="463" y2="395" stroke="#F08800" stroke-width="0.8" opacity="0.55"/><line x1="297" y1="698" x2="340" y2="661" stroke="#C06800" stroke-width="0.8" opacity="0.55"/><line x1="729" y1="730" x2="722" y2="715" stroke="#C06800" stroke-width="0.8" opacity="0.55"/><line x1="633" y1="604" x2="585" y2="624" stroke="#E8921A" stroke-width="0.8" opacity="0.55"/><line x1="617" y1="636" x2="607" y2="673" stroke="#F5A623" stroke-width="0.8" opacity="0.55"/><line x1="633" y1="604" x2="624" y2="546" stroke="#F08800" stroke-width="0.8" opacity="0.55"/><line x1="498" y1="522" x2="459" y2="521" stroke="#D4780A" stroke-width="0.8" opacity="0.55"/><line x1="252" y1="348" x2="244" y2="390" stroke="#D4780A" stroke-width="0.8" opacity="0.55"/><line x1="694" y1="636" x2="659" y2="610" stroke="#E8921A" stroke-width="0.8" opacity="0.55"/><line x1="603" y1="748" x2="634" y2="709" stroke="#D4780A" stroke-width="0.8" opacity="0.55"/><line x1="489" y1="462" x2="481" y2="419" stroke="#F5A623" stroke-width="0.8" opacity="0.55"/><line x1="200" y1="461" x2="271" y2="468" stroke="#F08800" stroke-width="0.8" opacity="0.55"/><line x1="159" y1="796" x2="248" y2="795" stroke="#F5A623" stroke-width="0.8" opacity="0.55"/><line x1="320" y1="524" x2="365" y2="572" stroke="#E8921A" stroke-width="0.8" opacity="0.55"/><line x1="476" y1="466" x2="546" y2="466" stroke="#C06800" stroke-width="0.8" opacity="0.55"/><line x1="297" y1="698" x2="272" y2="656" stroke="#C06800" stroke-width="0.8" opacity="0.55"/><line x1="225" y1="668" x2="233" y2="709" stroke="#C06800" stroke-width="0.8" opacity="0.55"/><line x1="585" y1="624" x2="627" y2="574" stroke="#F5A623" stroke-width="0.8" opacity="0.55"/><line x1="512" y1="481" x2="459" y2="521" stroke="#F08800" stroke-width="0.8" opacity="0.55"/><line x1="494" y1="847" x2="455" y2="878" stroke="#D4780A" stroke-width="0.8" opacity="0.55"/><line x1="585" y1="624" x2="642" y2="661" stroke="#E8921A" stroke-width="0.8" opacity="0.55"/><line x1="617" y1="636" x2="637" y2="594" stroke="#D4780A" stroke-width="0.8" opacity="0.55"/><line x1="297" y1="698" x2="288" y2="743" stroke="#F08800" stroke-width="0.8" opacity="0.55"/><line x1="272" y1="656" x2="311" y2="639" stroke="#F5A623" stroke-width="0.8" opacity="0.55"/><line x1="607" y1="673" x2="652" y2="632" stroke="#F08800" stroke-width="0.8" opacity="0.55"/><line x1="545" y1="536" x2="581" y2="506" stroke="#E8921A" stroke-width="0.8" opacity="0.55"/><line x1="546" y1="493" x2="498" y2="522" stroke="#C06800" stroke-width="0.8" opacity="0.55"/><line x1="637" y1="594" x2="659" y2="610" stroke="#F08800" stroke-width="0.8" opacity="0.55"/><line x1="476" y1="466" x2="512" y2="481" stroke="#C06800" stroke-width="0.8" opacity="0.55"/><line x1="489" y1="462" x2="512" y2="481" stroke="#F5A623" stroke-width="0.8" opacity="0.55"/><line x1="340" y1="602" x2="285" y2="559" stroke="#D4780A" stroke-width="0.8" opacity="0.55"/><line x1="585" y1="624" x2="536" y2="658" stroke="#E8921A" stroke-width="0.8" opacity="0.55"/><line x1="536" y1="658" x2="527" y2="662" stroke="#E8921A" stroke-width="0.8" opacity="0.55"/><line x1="367" y1="551" x2="298" y2="567" stroke="#C06800" stroke-width="0.8" opacity="0.55"/><line x1="552" y1="617" x2="536" y2="658" stroke="#C06800" stroke-width="0.8" opacity="0.55"/><line x1="345" y1="704" x2="323" y2="706" stroke="#D4780A" stroke-width="0.8" opacity="0.55"/><line x1="298" y1="567" x2="263" y2="579" stroke="#E8921A" stroke-width="0.8" opacity="0.55"/><line x1="585" y1="624" x2="527" y2="662" stroke="#E8921A" stroke-width="0.8" opacity="0.55"/><line x1="607" y1="673" x2="634" y2="709" stroke="#C06800" stroke-width="0.8" opacity="0.55"/><line x1="331" y1="780" x2="309" y2="804" stroke="#C06800" stroke-width="0.8" opacity="0.55"/><line x1="538" y1="514" x2="545" y2="536" stroke="#F08800" stroke-width="0.8" opacity="0.55"/><line x1="288" y1="743" x2="259" y2="766" stroke="#D4780A" stroke-width="0.8" opacity="0.55"/><line x1="552" y1="617" x2="527" y2="662" stroke="#F08800" stroke-width="0.8" opacity="0.55"/><line x1="637" y1="594" x2="694" y2="636" stroke="#F5A623" stroke-width="0.8" opacity="0.55"/><line x1="460" y1="688" x2="527" y2="662" stroke="#E8921A" stroke-width="0.8" opacity="0.55"/><line x1="309" y1="804" x2="248" y2="795" stroke="#D4780A" stroke-width="0.8" opacity="0.55"/><line x1="538" y1="514" x2="581" y2="506" stroke="#C06800" stroke-width="0.8" opacity="0.55"/><line x1="481" y1="419" x2="482" y2="387" stroke="#E8921A" stroke-width="0.8" opacity="0.55"/><line x1="320" y1="524" x2="387" y2="507" stroke="#F08800" stroke-width="0.8" opacity="0.55"/><line x1="484" y1="680" x2="503" y2="714" stroke="#C06800" stroke-width="0.8" opacity="0.55"/><line x1="340" y1="661" x2="323" y2="706" stroke="#F08800" stroke-width="0.8" opacity="0.55"/><line x1="503" y1="714" x2="536" y2="658" stroke="#C06800" stroke-width="0.8" opacity="0.55"/><line x1="512" y1="481" x2="498" y2="522" stroke="#E8921A" stroke-width="0.8" opacity="0.55"/><line x1="306" y1="595" x2="272" y2="656" stroke="#F5A623" stroke-width="0.8" opacity="0.55"/><line x1="642" y1="661" x2="634" y2="709" stroke="#D4780A" stroke-width="0.8" opacity="0.55"/><line x1="272" y1="656" x2="311" y2="605" stroke="#C06800" stroke-width="0.8" opacity="0.55"/><line x1="413" y1="699" x2="442" y2="759" stroke="#F5A623" stroke-width="0.8" opacity="0.55"/><line x1="633" y1="604" x2="637" y2="594" stroke="#E8921A" stroke-width="0.8" opacity="0.55"/><line x1="503" y1="714" x2="527" y2="662" stroke="#F5A623" stroke-width="0.8" opacity="0.55"/><line x1="252" y1="879" x2="300" y2="929" stroke="#E8921A" stroke-width="0.8" opacity="0.55"/><line x1="590" y1="836" x2="603" y2="748" stroke="#C06800" stroke-width="0.8" opacity="0.55"/><line x1="529" y1="391" x2="481" y2="419" stroke="#C06800" stroke-width="0.8" opacity="0.55"/><line x1="311" y1="605" x2="311" y2="639" stroke="#F08800" stroke-width="0.8" opacity="0.55"/><line x1="607" y1="673" x2="585" y2="624" stroke="#C06800" stroke-width="0.8" opacity="0.55"/><line x1="514" y1="897" x2="577" y2="850" stroke="#F08800" stroke-width="0.8" opacity="0.55"/><line x1="529" y1="391" x2="482" y2="387" stroke="#F5A623" stroke-width="0.8" opacity="0.55"/><line x1="340" y1="602" x2="340" y2="661" stroke="#E8921A" stroke-width="0.8" opacity="0.55"/><line x1="367" y1="551" x2="340" y2="602" stroke="#E8921A" stroke-width="0.8" opacity="0.55"/><line x1="617" y1="636" x2="627" y2="574" stroke="#D4780A" stroke-width="0.8" opacity="0.55"/><line x1="546" y1="466" x2="545" y2="536" stroke="#C06800" stroke-width="0.8" opacity="0.55"/><line x1="233" y1="605" x2="216" y2="562" stroke="#D4780A" stroke-width="0.8" opacity="0.55"/><line x1="538" y1="514" x2="549" y2="567" stroke="#D4780A" stroke-width="0.8" opacity="0.55"/><line x1="617" y1="636" x2="642" y2="661" stroke="#E8921A" stroke-width="0.8" opacity="0.55"/><line x1="489" y1="462" x2="476" y2="466" stroke="#E8921A" stroke-width="0.8" opacity="0.55"/><line x1="233" y1="605" x2="263" y2="579" stroke="#F08800" stroke-width="0.8" opacity="0.55"/><line x1="225" y1="668" x2="233" y2="605" stroke="#E8921A" stroke-width="0.8" opacity="0.55"/><line x1="340" y1="602" x2="365" y2="572" stroke="#D4780A" stroke-width="0.8" opacity="0.55"/><line x1="624" y1="546" x2="689" y2="541" stroke="#D4780A" stroke-width="0.8" opacity="0.55"/><line x1="734" y1="724" x2="736" y2="721" stroke="#E8921A" stroke-width="0.8" opacity="0.55"/><line x1="722" y1="715" x2="736" y2="721" stroke="#D4780A" stroke-width="0.8" opacity="0.55"/><line x1="306" y1="595" x2="340" y2="602" stroke="#D4780A" stroke-width="0.8" opacity="0.55"/><line x1="306" y1="595" x2="285" y2="559" stroke="#F08800" stroke-width="0.8" opacity="0.55"/><line x1="629" y1="421" x2="611" y2="454" stroke="#F5A623" stroke-width="0.8" opacity="0.55"/><line x1="233" y1="605" x2="168" y2="614" stroke="#C06800" stroke-width="0.8" opacity="0.55"/><line x1="297" y1="698" x2="233" y2="709" stroke="#D4780A" stroke-width="0.8" opacity="0.55"/><line x1="494" y1="847" x2="445" y2="876" stroke="#E8921A" stroke-width="0.8" opacity="0.55"/><line x1="459" y1="305" x2="416" y2="248" stroke="#F5A623" stroke-width="0.8" opacity="0.55"/><line x1="476" y1="466" x2="481" y2="419" stroke="#F08800" stroke-width="0.8" opacity="0.55"/><line x1="512" y1="481" x2="545" y2="536" stroke="#C06800" stroke-width="0.8" opacity="0.55"/><line x1="272" y1="656" x2="323" y2="706" stroke="#D4780A" stroke-width="0.8" opacity="0.55"/><line x1="312" y1="278" x2="370" y2="283" stroke="#F08800" stroke-width="0.8" opacity="0.55"/><line x1="659" y1="610" x2="627" y2="574" stroke="#E8921A" stroke-width="0.8" opacity="0.55"/><line x1="345" y1="704" x2="288" y2="743" stroke="#E8921A" stroke-width="0.8" opacity="0.55"/><line x1="367" y1="551" x2="320" y2="524" stroke="#E8921A" stroke-width="0.8" opacity="0.55"/><line x1="659" y1="610" x2="642" y2="661" stroke="#D4780A" stroke-width="0.8" opacity="0.55"/><line x1="387" y1="507" x2="391" y2="543" stroke="#E8921A" stroke-width="0.8" opacity="0.55"/><line x1="624" y1="546" x2="637" y2="594" stroke="#D4780A" stroke-width="0.8" opacity="0.55"/><line x1="736" y1="721" x2="728" y2="738" stroke="#F5A623" stroke-width="0.8" opacity="0.55"/><line x1="340" y1="602" x2="298" y2="567" stroke="#F5A623" stroke-width="0.8" opacity="0.55"/><line x1="536" y1="658" x2="515" y2="712" stroke="#C06800" stroke-width="0.8" opacity="0.55"/><line x1="694" y1="636" x2="652" y2="632" stroke="#F08800" stroke-width="0.8" opacity="0.55"/><line x1="306" y1="595" x2="320" y2="524" stroke="#C06800" stroke-width="0.8" opacity="0.55"/><line x1="323" y1="706" x2="335" y2="682" stroke="#D4780A" stroke-width="0.8" opacity="0.55"/><line x1="455" y1="878" x2="460" y2="939" stroke="#E8921A" stroke-width="0.8" opacity="0.55"/><line x1="340" y1="353" x2="364" y2="341" stroke="#D4780A" stroke-width="0.8" opacity="0.55"/><line x1="581" y1="506" x2="549" y2="567" stroke="#E8921A" stroke-width="0.8" opacity="0.55"/><line x1="320" y1="524" x2="391" y2="543" stroke="#C06800" stroke-width="0.8" opacity="0.55"/><line x1="413" y1="699" x2="345" y2="704" stroke="#D4780A" stroke-width="0.8" opacity="0.55"/><line x1="370" y1="283" x2="364" y2="341" stroke="#F5A623" stroke-width="0.8" opacity="0.55"/><line x1="460" y1="688" x2="515" y2="712" stroke="#F5A623" stroke-width="0.8" opacity="0.55"/><line x1="689" y1="541" x2="627" y2="574" stroke="#F08800" stroke-width="0.8" opacity="0.55"/><line x1="590" y1="836" x2="656" y2="852" stroke="#E8921A" stroke-width="0.8" opacity="0.55"/><line x1="460" y1="688" x2="416" y2="682" stroke="#D4780A" stroke-width="0.8" opacity="0.55"/><line x1="445" y1="876" x2="455" y2="878" stroke="#F08800" stroke-width="0.8" opacity="0.55"/><line x1="311" y1="605" x2="263" y2="579" stroke="#D4780A" stroke-width="0.8" opacity="0.55"/><line x1="617" y1="636" x2="659" y2="610" stroke="#F08800" stroke-width="0.8" opacity="0.55"/><line x1="633" y1="604" x2="627" y2="574" stroke="#D4780A" stroke-width="0.8" opacity="0.55"/><line x1="211" y1="340" x2="244" y2="390" stroke="#C06800" stroke-width="0.8" opacity="0.55"/><line x1="693" y1="842" x2="656" y2="852" stroke="#D4780A" stroke-width="0.8" opacity="0.55"/><line x1="233" y1="605" x2="216" y2="595" stroke="#C06800" stroke-width="0.8" opacity="0.55"/><line x1="611" y1="454" x2="581" y2="506" stroke="#F5A623" stroke-width="0.8" opacity="0.55"/><line x1="637" y1="594" x2="652" y2="632" stroke="#F08800" stroke-width="0.8" opacity="0.55"/><line x1="633" y1="604" x2="642" y2="661" stroke="#F5A623" stroke-width="0.8" opacity="0.55"/><line x1="367" y1="551" x2="365" y2="572" stroke="#F08800" stroke-width="0.8" opacity="0.55"/><line x1="529" y1="391" x2="546" y2="466" stroke="#F08800" stroke-width="0.8" opacity="0.55"/><line x1="633" y1="431" x2="682" y2="409" stroke="#D4780A" stroke-width="0.8" opacity="0.55"/><line x1="309" y1="804" x2="348" y2="858" stroke="#F5A623" stroke-width="0.8" opacity="0.55"/><line x1="298" y1="567" x2="285" y2="559" stroke="#E8921A" stroke-width="0.8" opacity="0.55"/><line x1="216" y1="595" x2="216" y2="562" stroke="#C06800" stroke-width="0.8" opacity="0.55"/><line x1="481" y1="419" x2="444" y2="386" stroke="#F08800" stroke-width="0.8" opacity="0.55"/><line x1="545" y1="536" x2="549" y2="567" stroke="#F5A623" stroke-width="0.8" opacity="0.55"/><line x1="211" y1="511" x2="216" y2="562" stroke="#F08800" stroke-width="0.8" opacity="0.55"/><line x1="216" y1="595" x2="263" y2="579" stroke="#E8921A" stroke-width="0.8" opacity="0.55"/><line x1="694" y1="636" x2="722" y2="715" stroke="#E8921A" stroke-width="0.8" opacity="0.55"/><line x1="512" y1="481" x2="538" y2="514" stroke="#E8921A" stroke-width="0.8" opacity="0.55"/><line x1="629" y1="421" x2="682" y2="409" stroke="#F08800" stroke-width="0.8" opacity="0.55"/><line x1="503" y1="714" x2="515" y2="712" stroke="#F5A623" stroke-width="0.8" opacity="0.55"/><line x1="216" y1="595" x2="168" y2="614" stroke="#C06800" stroke-width="0.8" opacity="0.55"/><line x1="211" y1="511" x2="168" y2="554" stroke="#F08800" stroke-width="0.8" opacity="0.55"/><line x1="306" y1="595" x2="365" y2="572" stroke="#E8921A" stroke-width="0.8" opacity="0.55"/><line x1="546" y1="493" x2="545" y2="536" stroke="#C06800" stroke-width="0.8" opacity="0.55"/><line x1="652" y1="632" x2="642" y2="661" stroke="#E8921A" stroke-width="0.8" opacity="0.55"/><line x1="150" y1="799" x2="159" y2="796" stroke="#E8921A" stroke-width="0.8" opacity="0.55"/><line x1="652" y1="632" x2="627" y2="574" stroke="#D4780A" stroke-width="0.8" opacity="0.55"/><line x1="546" y1="493" x2="512" y2="481" stroke="#D4780A" stroke-width="0.8" opacity="0.55"/><line x1="285" y1="559" x2="311" y2="605" stroke="#E8921A" stroke-width="0.8" opacity="0.55"/><line x1="546" y1="493" x2="581" y2="506" stroke="#F5A623" stroke-width="0.8" opacity="0.55"/><line x1="590" y1="836" x2="577" y2="850" stroke="#F08800" stroke-width="0.8" opacity="0.55"/><line x1="365" y1="572" x2="391" y2="543" stroke="#C06800" stroke-width="0.8" opacity="0.55"/><line x1="445" y1="876" x2="460" y2="939" stroke="#F08800" stroke-width="0.8" opacity="0.55"/><line x1="489" y1="462" x2="546" y2="466" stroke="#F5A623" stroke-width="0.8" opacity="0.55"/><circle cx="590" cy="836" r="4.5" fill="#E8921A" opacity="0.80"/><circle cx="309" cy="440" r="4.5" fill="#FFB340" opacity="0.80"/><circle cx="514" cy="897" r="4.5" fill="#E8921A" opacity="0.80"/><circle cx="529" cy="391" r="4.5" fill="#F08800" opacity="0.80"/><circle cx="306" cy="595" r="6.0" fill="#F5A623" opacity="0.92"/><circle cx="633" cy="604" r="6.0" fill="#F08800" opacity="0.92"/><circle cx="367" cy="551" r="5.0" fill="#FF9F0A" opacity="0.83"/><circle cx="489" cy="462" r="6.0" fill="#FFB340" opacity="0.92"/><circle cx="460" cy="688" r="5.0" fill="#D4780A" opacity="0.83"/><circle cx="738" cy="596" r="3.0" fill="#F5A623" opacity="0.71"/><circle cx="629" cy="421" r="3.5" fill="#F5A623" opacity="0.74"/><circle cx="617" cy="636" r="6.0" fill="#FFB340" opacity="0.92"/><circle cx="340" cy="602" r="6.0" fill="#FF9500" opacity="0.89"/><circle cx="624" cy="546" r="4.5" fill="#FF9F0A" opacity="0.80"/><circle cx="625" cy="857" r="4.0" fill="#FF9500" opacity="0.77"/><circle cx="693" cy="842" r="3.0" fill="#F5A623" opacity="0.71"/><circle cx="225" cy="668" r="3.5" fill="#FF9F0A" opacity="0.74"/><circle cx="331" cy="780" r="3.5" fill="#E8921A" opacity="0.74"/><circle cx="484" cy="680" r="5.5" fill="#FF9500" opacity="0.86"/><circle cx="546" cy="493" r="5.5" fill="#FF9F0A" opacity="0.86"/><circle cx="476" cy="466" r="5.5" fill="#D4780A" opacity="0.86"/><circle cx="777" cy="535" r="2.5" fill="#D4780A" opacity="0.68"/><circle cx="459" cy="305" r="3.0" fill="#FF9500" opacity="0.71"/><circle cx="200" cy="461" r="3.5" fill="#FF9500" opacity="0.74"/><circle cx="603" cy="748" r="3.0" fill="#FF9500" opacity="0.71"/><circle cx="512" cy="481" r="6.0" fill="#F08800" opacity="0.95"/><circle cx="743" cy="446" r="3.5" fill="#D4780A" opacity="0.74"/><circle cx="297" cy="698" r="6.0" fill="#FF9F0A" opacity="0.89"/><circle cx="272" cy="656" r="6.0" fill="#F5A623" opacity="0.95"/><circle cx="637" cy="594" r="6.0" fill="#FF9F0A" opacity="0.92"/><circle cx="552" cy="617" r="4.5" fill="#F08800" opacity="0.80"/><circle cx="378" cy="246" r="3.0" fill="#E8921A" opacity="0.71"/><circle cx="233" cy="605" r="5.5" fill="#F08800" opacity="0.86"/><circle cx="173" cy="509" r="4.0" fill="#D4780A" opacity="0.77"/><circle cx="494" cy="847" r="4.0" fill="#FFB340" opacity="0.77"/><circle cx="211" cy="511" r="4.0" fill="#D4780A" opacity="0.77"/><circle cx="503" cy="714" r="4.5" fill="#FF9F0A" opacity="0.80"/><circle cx="252" cy="879" r="3.0" fill="#FF9F0A" opacity="0.71"/><circle cx="309" cy="804" r="4.5" fill="#D4780A" opacity="0.80"/><circle cx="413" cy="699" r="4.5" fill="#FF9F0A" opacity="0.80"/><circle cx="734" cy="724" r="4.0" fill="#FF9500" opacity="0.77"/><circle cx="481" cy="419" r="5.5" fill="#FF9500" opacity="0.86"/><circle cx="340" cy="353" r="3.5" fill="#E8921A" opacity="0.74"/><circle cx="733" cy="391" r="3.5" fill="#D4780A" opacity="0.74"/><circle cx="150" cy="799" r="2.5" fill="#FFB340" opacity="0.68"/><circle cx="689" cy="541" r="3.0" fill="#E8921A" opacity="0.71"/><circle cx="611" cy="454" r="4.0" fill="#F5A623" opacity="0.77"/><circle cx="345" cy="704" r="5.5" fill="#FFB340" opacity="0.86"/><circle cx="538" cy="514" r="6.0" fill="#FF9F0A" opacity="0.89"/><circle cx="729" cy="730" r="4.0" fill="#D4780A" opacity="0.77"/><circle cx="482" cy="387" r="4.0" fill="#FFB340" opacity="0.77"/><circle cx="498" cy="522" r="6.0" fill="#E8921A" opacity="0.89"/><circle cx="442" cy="759" r="2.5" fill="#FFB340" opacity="0.68"/><circle cx="340" cy="661" r="6.0" fill="#FF9500" opacity="0.89"/><circle cx="607" cy="673" r="4.5" fill="#FF9500" opacity="0.80"/><circle cx="739" cy="388" r="3.5" fill="#FF9F0A" opacity="0.74"/><circle cx="444" cy="386" r="3.5" fill="#F5A623" opacity="0.74"/><circle cx="445" cy="952" r="2.5" fill="#F08800" opacity="0.68"/><circle cx="168" cy="554" r="4.5" fill="#D4780A" opacity="0.80"/><circle cx="585" cy="624" r="6.0" fill="#E8921A" opacity="0.95"/><circle cx="610" cy="341" r="2.5" fill="#E8921A" opacity="0.68"/><circle cx="633" cy="431" r="3.5" fill="#F5A623" opacity="0.74"/><circle cx="233" cy="709" r="4.5" fill="#FFB340" opacity="0.80"/><circle cx="546" cy="466" r="6.0" fill="#F08800" opacity="0.92"/><circle cx="298" cy="567" r="6.0" fill="#F08800" opacity="0.89"/><circle cx="459" cy="521" r="4.5" fill="#FF9F0A" opacity="0.80"/><circle cx="312" cy="278" r="3.0" fill="#F08800" opacity="0.71"/><circle cx="694" cy="636" r="5.5" fill="#F08800" opacity="0.86"/><circle cx="252" cy="348" r="3.5" fill="#E8921A" opacity="0.74"/><circle cx="320" cy="524" r="6.0" fill="#F5A623" opacity="0.89"/><circle cx="159" cy="796" r="3.0" fill="#D4780A" opacity="0.71"/><circle cx="545" cy="536" r="5.5" fill="#E8921A" opacity="0.86"/><circle cx="536" cy="658" r="5.0" fill="#E8921A" opacity="0.83"/><circle cx="652" cy="632" r="6.0" fill="#E8921A" opacity="0.92"/><circle cx="656" cy="852" r="3.5" fill="#F5A623" opacity="0.74"/><circle cx="387" cy="507" r="4.0" fill="#FF9500" opacity="0.77"/><circle cx="285" cy="559" r="6.0" fill="#E8921A" opacity="0.89"/><circle cx="311" cy="605" r="6.0" fill="#FFB340" opacity="0.92"/><circle cx="515" cy="712" r="4.5" fill="#E8921A" opacity="0.80"/><circle cx="248" cy="795" r="4.5" fill="#E8921A" opacity="0.80"/><circle cx="365" cy="572" r="6.0" fill="#FF9500" opacity="0.89"/><circle cx="370" cy="283" r="4.0" fill="#F5A623" opacity="0.77"/><circle cx="496" cy="300" r="2.5" fill="#E8921A" opacity="0.68"/><circle cx="659" cy="610" r="5.5" fill="#FF9500" opacity="0.86"/><circle cx="722" cy="715" r="4.5" fill="#FF9F0A" opacity="0.80"/><circle cx="577" cy="850" r="3.5" fill="#F5A623" opacity="0.74"/><circle cx="445" cy="876" r="4.0" fill="#FF9F0A" opacity="0.77"/><circle cx="416" cy="682" r="3.5" fill="#D4780A" opacity="0.74"/><circle cx="323" cy="706" r="5.5" fill="#F5A623" opacity="0.86"/><circle cx="581" cy="506" r="6.0" fill="#FFB340" opacity="0.89"/><circle cx="216" cy="595" r="4.5" fill="#F5A623" opacity="0.80"/><circle cx="549" cy="567" r="5.0" fill="#E8921A" opacity="0.83"/><circle cx="271" cy="468" r="3.5" fill="#FF9F0A" opacity="0.74"/><circle cx="416" cy="248" r="3.5" fill="#FF9F0A" opacity="0.74"/><circle cx="348" cy="858" r="2.5" fill="#E8921A" opacity="0.68"/><circle cx="216" cy="562" r="6.0" fill="#FF9500" opacity="0.89"/><circle cx="736" cy="721" r="4.0" fill="#F5A623" opacity="0.77"/><circle cx="627" cy="574" r="6.0" fill="#F5A623" opacity="0.89"/><circle cx="300" cy="929" r="2.5" fill="#FFB340" opacity="0.68"/><circle cx="527" cy="662" r="5.5" fill="#E8921A" opacity="0.86"/><circle cx="728" cy="738" r="4.0" fill="#E8921A" opacity="0.77"/><circle cx="463" cy="395" r="5.0" fill="#FF9500" opacity="0.83"/><circle cx="391" cy="543" r="4.5" fill="#FF9500" opacity="0.80"/><circle cx="325" cy="439" r="3.0" fill="#F5A623" opacity="0.71"/><circle cx="263" cy="579" r="5.5" fill="#E8921A" opacity="0.86"/><circle cx="335" cy="682" r="5.0" fill="#E8921A" opacity="0.83"/><circle cx="642" cy="661" r="6.0" fill="#D4780A" opacity="0.92"/><circle cx="455" cy="878" r="4.0" fill="#FF9500" opacity="0.77"/><circle cx="567" cy="341" r="3.0" fill="#FFB340" opacity="0.71"/><circle cx="311" cy="639" r="6.0" fill="#FFB340" opacity="0.92"/><circle cx="288" cy="743" r="6.0" fill="#FF9500" opacity="0.89"/><circle cx="211" cy="340" r="3.0" fill="#FF9F0A" opacity="0.71"/><circle cx="634" cy="709" r="3.5" fill="#FF9F0A" opacity="0.74"/><circle cx="168" cy="614" r="4.0" fill="#FFB340" opacity="0.77"/><circle cx="682" cy="409" r="4.5" fill="#F5A623" opacity="0.80"/><circle cx="244" cy="390" r="3.5" fill="#D4780A" opacity="0.74"/><circle cx="291" cy="319" r="3.5" fill="#F08800" opacity="0.74"/><circle cx="364" cy="341" r="3.0" fill="#F08800" opacity="0.71"/><circle cx="460" cy="939" r="4.0" fill="#FFB340" opacity="0.77"/><circle cx="259" cy="766" r="4.5" fill="#FF9F0A" opacity="0.80"/><circle cx="590" cy="836" r="8" fill="#F08800" opacity="0.95"/><circle cx="590" cy="836" r="16" fill="#F08800" opacity="0.35"/><circle cx="309" cy="440" r="8" fill="#F08800" opacity="0.95"/><circle cx="309" cy="440" r="16" fill="#F08800" opacity="0.35"/><circle cx="514" cy="897" r="8" fill="#F08800" opacity="0.95"/><circle cx="514" cy="897" r="16" fill="#F08800" opacity="0.35"/><circle cx="529" cy="391" r="8" fill="#F08800" opacity="0.95"/><circle cx="529" cy="391" r="16" fill="#F08800" opacity="0.35"/><circle cx="306" cy="595" r="8" fill="#F08800" opacity="0.95"/><circle cx="306" cy="595" r="16" fill="#F08800" opacity="0.35"/></svg>